*
*
G04 PADS VX.2.4 Build Number: 11282995 generated Gerber (RS-274-X) file*
G04 PC Version=2.1*
*
%IN "AD-31_V100.pcb"*%
*
%MOIN*%
*
%FSLAX35Y35*%
*
*
*
*
G04 PC Standard Apertures*
*
*
G04 Thermal Relief Aperture macro.*
%AMTER*
1,1,$1,0,0*
1,0,$1-$2,0,0*
21,0,$3,$4,0,0,45*
21,0,$3,$4,0,0,135*
%
*
*
G04 Annular Aperture macro.*
%AMANN*
1,1,$1,0,0*
1,0,$2,0,0*
%
*
*
G04 Odd Aperture macro.*
%AMODD*
1,1,$1,0,0*
1,0,$1-0.005,0,0*
%
*
*
G04 PC Custom Aperture Macros*
*
*
*
*
*
*
G04 PC Aperture Table*
*
%ADD010C,0.015*%
%ADD036C,0.03937*%
%ADD047C,0.00787*%
%ADD052C,0.001*%
%ADD076R,0.09842X0.06299*%
%ADD077O,0.09842X0.06299*%
%ADD080R,0.06693X0.06693*%
%ADD081C,0.06693*%
%ADD088R,0.06181X0.06181*%
%ADD089C,0.06181*%
%ADD108C,0.01969*%
%ADD109C,0.02362*%
%ADD146C,0.0063*%
%ADD172C,0.00866*%
%ADD177C,0.03543*%
*
*
*
*
G04 PC Circuitry*
G04 Layer Name AD-31_V100.pcb - circuitry*
%LPD*%
*
*
G04 PC Custom Flashes*
G04 Layer Name AD-31_V100.pcb - flashes*
%LPD*%
*
*
G04 PC Circuitry*
G04 Layer Name AD-31_V100.pcb - circuitry*
%LPD*%
*
G54D10*
G01X805382Y619082D02*
X806161Y619862D01*
X811311Y619082D02*
X810532Y619862D01*
X811311Y625012D02*
X810532Y624233D01*
X805382Y625012D02*
X806161Y624233D01*
X841678Y463686D02*
X842458Y464466D01*
X841678Y469700D02*
X842458Y468920D01*
X851235Y469700D02*
X850455Y468920D01*
X851235Y463686D02*
X850455Y464466D01*
G54D36*
X435633Y609352D03*
X831199Y420591D03*
G54D47*
X681963Y488350D02*
X680292Y487467D01*
X681080Y486679*
X681963Y488350*
X680357Y487402D02*
X681462D01*
X681659Y488189D02*
X681878D01*
X680315Y487444D02*
Y487479D01*
X681102Y486722D02*
Y487895D01*
X681890Y488212D02*
Y488311D01*
X704349Y500309D02*
X706154Y499753D01*
Y500866*
X704349Y500309*
X705352Y500000D02*
X706154D01*
X705899Y500787D02*
X706154D01*
X704724Y500194D02*
Y500425D01*
X705512Y499951D02*
Y500668D01*
X680292Y486679D02*
X693922Y500309D01*
X706711*
X411827Y417037D02*
Y610444D01*
X411835Y610447D02*
G75*
G03X427605Y627932I-13807J28309D01*
G01X427599Y627913D02*
X840984D01*
X840977Y627932D02*
G03X856748Y610447I29578J10824D01*
G01X856756Y610444D02*
Y417037D01*
X856748Y417033D02*
G03X840977Y399548I13807J-28309D01*
G01X840984Y399567D02*
X427598D01*
X427605Y399548D02*
G03X411834Y417033I-29577J-10824D01*
G01X472874Y592480D02*
G03X472874I-7874J0D01*
G01Y435000D02*
G03X472874I-7874J0D01*
G01X748465D02*
G03X748465I-7874J0D01*
G01X436657Y592480D02*
G03X436657I-1185J0D01*
G54D52*
G01X473377Y584103D02*
X471964Y582895D01*
G54D76*
X846457Y456693D03*
G54D77*
Y466693D03*
Y476693D03*
Y486693D03*
G54D80*
X765748Y622047D03*
G54D81*
X755748D03*
X745748D03*
X735748D03*
G54D88*
X778346D03*
G54D89*
X788346D03*
X798346D03*
X808346D03*
X818346D03*
X828346D03*
G54D108*
X635433Y535958D02*
X635990Y538813D01*
X634876*
X635433Y535958*
X635305Y536614D02*
X635561D01*
X634921Y538583D02*
X635945D01*
X635039Y537977D02*
Y538813D01*
X798346Y615866D02*
X799836Y620558D01*
X796857*
X798346Y615866*
X797884Y617323D02*
X798809D01*
X797259Y619291D02*
X799434D01*
X798425Y616114D02*
Y620558D01*
X628187Y497921D02*
X624414Y501694D01*
X623375*
X619603Y505466*
X628187Y497921D02*
X628535Y498269D01*
X619603Y505466D02*
Y509740D01*
X620619Y510756*
Y515030*
X641229Y518110D02*
X635339D01*
X618108Y535341*
X581909*
X571654Y545597*
Y586311*
X635433Y533005D02*
Y539370D01*
X742001Y534646D02*
X751052D01*
X755118Y538712*
Y551650*
Y553482*
Y551650D02*
X756912Y553444D01*
X755118Y570669D02*
Y555358D01*
Y553482*
X756912Y553444D02*
Y553564D01*
X755118Y555358*
X792330Y553444D02*
X756912D01*
X755205*
X755167Y553482*
X755118*
Y570669D02*
X777762Y593312D01*
X786742*
X798346Y604917*
Y622047*
G54D109*
X425370Y439171D03*
Y429171D03*
Y419171D03*
X415370Y439171D03*
Y429171D03*
Y419171D03*
X465370D03*
Y409171D03*
X455370Y419171D03*
Y409171D03*
X445370Y439171D03*
Y429171D03*
Y419171D03*
Y409171D03*
X435370Y439171D03*
Y429171D03*
Y419171D03*
Y409171D03*
X505370Y439171D03*
Y429171D03*
Y419171D03*
Y409171D03*
X495370Y439171D03*
Y429171D03*
X499146Y422996D03*
X477905Y427308D03*
X475370Y419171D03*
Y409171D03*
X545370Y439171D03*
Y429171D03*
Y419171D03*
Y409171D03*
X535370Y439171D03*
Y429171D03*
Y419171D03*
Y409171D03*
X525370Y439171D03*
Y429171D03*
Y419171D03*
Y409171D03*
X515370Y439171D03*
Y429171D03*
Y419171D03*
Y409171D03*
X585370Y439171D03*
Y429171D03*
Y419171D03*
X565370Y439171D03*
Y429171D03*
Y419171D03*
Y409171D03*
X555370Y439171D03*
Y429171D03*
Y419171D03*
Y409171D03*
X625370Y439171D03*
Y429171D03*
Y419171D03*
Y409171D03*
X615370Y439171D03*
Y429171D03*
Y419171D03*
Y409171D03*
X605370Y439171D03*
Y429171D03*
Y419171D03*
Y409171D03*
X595370Y439171D03*
Y429171D03*
Y419171D03*
Y409171D03*
X665370Y439171D03*
Y429171D03*
Y419171D03*
Y409171D03*
X655370Y439171D03*
Y429171D03*
Y419171D03*
Y409171D03*
X645370Y439171D03*
Y429171D03*
Y419171D03*
Y409171D03*
X635370Y429171D03*
Y419171D03*
Y409171D03*
X705370Y429171D03*
Y419171D03*
Y409171D03*
X695370Y439171D03*
Y429171D03*
Y419171D03*
Y409171D03*
X685370Y439171D03*
Y429171D03*
Y419171D03*
Y409171D03*
X675370Y439171D03*
Y429171D03*
Y419171D03*
Y409171D03*
X745370Y419171D03*
Y409171D03*
X735370Y419171D03*
Y409171D03*
X725370Y439171D03*
Y429171D03*
Y419171D03*
Y409171D03*
X715370Y439171D03*
Y429171D03*
Y419171D03*
Y409171D03*
X785370Y429171D03*
X760242Y435098D03*
X773856Y436324D03*
X775370Y429171D03*
Y419171D03*
Y409171D03*
X766518Y444722D03*
X765370Y439171D03*
Y429171D03*
Y419171D03*
Y409171D03*
X758209Y445440D03*
X755370Y439171D03*
Y429171D03*
Y419171D03*
Y409171D03*
X825370Y439171D03*
Y429171D03*
Y409171D03*
X815370Y439171D03*
Y429171D03*
Y419171D03*
Y409171D03*
X805370Y439171D03*
Y429171D03*
Y419171D03*
Y409171D03*
X795460Y435505D03*
X795370Y429171D03*
Y419171D03*
Y409171D03*
X845370Y439171D03*
Y429171D03*
Y419171D03*
X835370Y439171D03*
Y429171D03*
Y409171D03*
X425370Y479171D03*
Y469171D03*
Y459171D03*
Y449171D03*
X415370Y479171D03*
Y469171D03*
Y459171D03*
Y449171D03*
X468295Y464168D03*
X465370Y479171D03*
Y469171D03*
Y459171D03*
Y449171D03*
X455370Y479171D03*
Y469171D03*
Y459171D03*
Y449171D03*
X445370Y479171D03*
Y469171D03*
Y459171D03*
Y449171D03*
X435370Y479171D03*
Y469171D03*
Y459171D03*
Y449171D03*
X505370Y479171D03*
Y469171D03*
X485370Y479171D03*
X475370D03*
Y469171D03*
Y459171D03*
Y449171D03*
X545370Y469171D03*
X535370D03*
X525370Y479171D03*
Y469171D03*
X585370D03*
X575370D03*
X565370D03*
X555370D03*
X619574Y463778D03*
X625370Y459171D03*
Y449171D03*
X595370Y469171D03*
X665370D03*
Y459171D03*
Y449171D03*
X655871Y475106D03*
X655370Y469171D03*
Y459171D03*
Y449171D03*
X647980Y463868D03*
X648279Y447668D03*
X680292Y486679D03*
X692818Y483103D03*
X691443Y475153D03*
X695370Y469171D03*
Y459171D03*
Y449171D03*
X685370Y479171D03*
Y469171D03*
Y459171D03*
Y449171D03*
X675370Y469171D03*
Y459171D03*
Y449171D03*
X750153Y460503D03*
X749974Y464389D03*
X750572Y468872D03*
X749482Y447293D03*
X735370Y449171D03*
X725370Y469171D03*
Y459171D03*
Y449171D03*
X715370Y469171D03*
Y459171D03*
Y449171D03*
X757028Y460264D03*
X753501Y460324D03*
X753202Y464628D03*
X756908Y464986D03*
X756848Y468992D03*
X753680Y468932D03*
X785370Y479171D03*
X825370Y469171D03*
X815370Y479171D03*
Y469171D03*
Y449171D03*
X805370Y479171D03*
Y469171D03*
X795370Y479171D03*
Y469171D03*
X845370Y449171D03*
X835370Y469171D03*
X836054Y448487D03*
X425370Y519171D03*
Y509171D03*
Y499171D03*
Y489171D03*
X415370Y519171D03*
Y509171D03*
Y489171D03*
X465370Y519171D03*
Y509171D03*
Y499171D03*
Y489171D03*
X455370Y519171D03*
Y509171D03*
Y499171D03*
Y489171D03*
X445370Y519171D03*
Y509171D03*
Y499171D03*
Y489171D03*
X435370Y519171D03*
Y509171D03*
Y499171D03*
Y489171D03*
X481860Y524309D03*
X505370Y519171D03*
Y509171D03*
Y499171D03*
Y489171D03*
X485370Y519171D03*
Y509171D03*
Y499171D03*
Y489171D03*
X475370Y519171D03*
Y509171D03*
Y489171D03*
X525370Y519171D03*
Y509171D03*
Y499171D03*
Y489171D03*
X627938Y507323D03*
X627312Y503463D03*
X631172Y511024D03*
X619603Y505466D03*
X620619Y515030D03*
X628535Y498269D03*
X641229Y518110D03*
X643008Y511024D03*
X706711Y500309D03*
X679428Y507297D03*
X703244Y503509D03*
X694959Y516311D03*
X685370Y519171D03*
X745370D03*
X735370D03*
Y509171D03*
X725370Y519171D03*
Y509171D03*
X718662Y513556D03*
X785370Y519171D03*
Y509171D03*
Y499171D03*
Y489171D03*
X775370Y509171D03*
X765370Y519171D03*
X755370D03*
X822893Y493762D03*
X829652Y512885D03*
X815370Y519171D03*
Y509171D03*
Y499171D03*
Y489171D03*
X805370Y519171D03*
Y509171D03*
Y499171D03*
Y489171D03*
X795370Y519171D03*
Y509171D03*
Y499171D03*
Y489171D03*
X845370Y519171D03*
Y509171D03*
Y499171D03*
X835370Y519171D03*
Y509171D03*
Y499171D03*
X425370Y559171D03*
Y549171D03*
Y539171D03*
Y529171D03*
X415370Y559171D03*
Y549171D03*
Y539171D03*
Y529171D03*
X438583Y559042D03*
X458602Y552676D03*
X434646Y558777D03*
X441913Y548286D03*
X465370Y549171D03*
Y539171D03*
Y529171D03*
X455370D03*
X445370D03*
X435370D03*
X485691Y527256D03*
X481270Y565566D03*
X481183Y533020D03*
X505370Y549171D03*
X475370D03*
Y539171D03*
Y529171D03*
X525370Y539171D03*
X625370Y559171D03*
Y549171D03*
Y539171D03*
X635433Y533005D03*
X665370Y559171D03*
Y549171D03*
X655370Y559171D03*
Y549171D03*
X645370Y559171D03*
Y549171D03*
X705370Y529171D03*
X695370D03*
X685370Y559171D03*
Y549171D03*
X675370Y559171D03*
Y549171D03*
X736394Y527296D03*
X739418Y537793D03*
X742001Y534646D03*
X727308Y566561D03*
X725370Y549171D03*
X715370D03*
Y539171D03*
X792330Y553444D03*
X761259Y548793D03*
X769389Y548195D03*
X785370Y529171D03*
X776681Y546163D03*
X765742Y543712D03*
X810548Y563983D03*
X813661Y558547D03*
X806040Y553893D03*
X829652Y529966D03*
X829840Y544700D03*
X828150Y552115D03*
X822688Y551374D03*
X831236Y557411D03*
X822631Y558848D03*
X815370Y529171D03*
X841441Y564572D03*
X845370Y559171D03*
Y549171D03*
Y539171D03*
Y529171D03*
X835370Y559171D03*
Y549171D03*
Y539171D03*
Y529171D03*
X425370Y599171D03*
Y589171D03*
Y579171D03*
Y569171D03*
X415370Y599171D03*
Y589171D03*
Y579171D03*
Y569171D03*
X466388Y576911D03*
X465370Y569171D03*
X452349Y602475D03*
X455370Y579171D03*
Y569171D03*
X445370Y599171D03*
Y589171D03*
Y579171D03*
Y569171D03*
X435370Y579171D03*
Y569171D03*
X493205Y575733D03*
X488932Y571165D03*
X506217Y599026D03*
X500766Y594016D03*
X483674Y598878D03*
X489125Y600057D03*
X490893Y603888D03*
X510099Y602330D03*
X495928Y600547D03*
X485370Y589171D03*
X475370Y579171D03*
X518269Y584693D03*
X523526Y584937D03*
X549919Y601189D03*
X551305Y592837D03*
X538044Y600057D03*
X539370Y604330D03*
X527730Y601678D03*
X526256Y594900D03*
X517416Y598436D03*
X545370Y589171D03*
X535370D03*
X512886Y594060D03*
X521455Y604582D03*
X571654Y586311D03*
X568337Y602515D03*
X580977Y602949D03*
X557501Y602815D03*
X572769Y606748D03*
X587994Y596373D03*
X562249Y602691D03*
X555725Y597552D03*
X585370Y589171D03*
X579466Y591896D03*
X555370Y589171D03*
X594270Y603989D03*
X619084Y595637D03*
X609654Y598142D03*
X595214Y597405D03*
X602479Y594561D03*
X625370Y589171D03*
Y579171D03*
Y569171D03*
X615370Y589171D03*
Y579171D03*
X605370Y589171D03*
X595370D03*
X665370Y579171D03*
Y569171D03*
X655370Y589171D03*
Y569171D03*
X645370Y589171D03*
Y569171D03*
X707989Y585827D03*
X707976Y593701D03*
X710696Y573975D03*
X685370Y589171D03*
Y579171D03*
Y569171D03*
X675370Y589171D03*
Y579171D03*
Y569171D03*
X727666Y585827D03*
X751735Y587187D03*
X731535Y593701D03*
X746597Y587668D03*
X749190Y590694D03*
X739602Y571629D03*
X745796Y579324D03*
X734159Y568719D03*
X739977Y577729D03*
X716890Y578010D03*
X740992Y606175D03*
X751409Y604204D03*
X715370Y589171D03*
X782759Y585119D03*
X782730Y571763D03*
X775326Y598851D03*
X781781Y599201D03*
X778712Y585407D03*
X778626Y574720D03*
X755118Y570669D03*
X784493Y567394D03*
X761546Y591807D03*
X761357Y606644D03*
X783257Y606795D03*
X785370Y589171D03*
X828261Y595571D03*
X819161Y574568D03*
X818110Y595398D03*
X796921Y589976D03*
X810974Y600110D03*
X841539Y598744D03*
X848381Y600660D03*
X850786Y592622D03*
X850666Y574031D03*
X845370Y569171D03*
X425370Y609171D03*
X465370Y619171D03*
Y609171D03*
X455370Y619171D03*
Y609171D03*
X445370Y619171D03*
Y609171D03*
X435370Y619171D03*
X507985Y623043D03*
X501355Y617444D03*
X504449Y620538D03*
X506070Y616560D03*
X503270Y606982D03*
X478811Y610224D03*
X488094Y611255D03*
X483526Y607572D03*
X495019Y612876D03*
X493546Y621275D03*
X476454Y622011D03*
X483968Y619654D03*
X474833Y617738D03*
X550561Y611143D03*
X544232Y623043D03*
X541580Y608603D03*
X540991Y616854D03*
X534508Y620391D03*
X531561Y616118D03*
X529056Y607130D03*
X526993Y618917D03*
X524046Y624074D03*
X523309Y613171D03*
X514321Y606835D03*
X515795Y614497D03*
X515205Y620391D03*
X566127Y609293D03*
X559791Y623291D03*
X583072D03*
X579536Y611061D03*
X567680Y620628D03*
X587574Y607904D03*
X589887Y613456D03*
X579940Y618083D03*
X569299Y615076D03*
X556576Y610218D03*
X556113Y618083D03*
X592797Y621081D03*
X741461Y611149D03*
X751503Y610961D03*
X759856Y612463D03*
X771493Y607113D03*
X771775Y612463D03*
X792283Y610980D03*
X783795Y611877D03*
X805643Y607936D03*
X810376Y610691D03*
X839127Y610607D03*
G54D146*
X837739Y420591D02*
G03X837739I-6540J0D01*
G01X752717Y435000D02*
G03X752717I-12126J0D01*
G01X474764D02*
G03X474764I-9764J0D01*
G01Y592480D02*
G03X474764I-9764J0D01*
G01X438546D02*
G03X438546I-3074J0D01*
G01X442173Y609352D02*
G03X442173I-6540J0D01*
G01X854866Y609098D02*
G03X854701Y609375I-315J-0D01*
G01X839773Y625831D02*
G03X854701Y609375I30782J12925D01*
G01X839773Y625831D02*
G03X839482Y626024I-291J-122D01*
G01X830976*
G03X830792Y625453I0J-315*
G01X832539Y622047D02*
G03X830792Y625453I-4193J0D01*
G01X824154Y622047D02*
G03X832539I4192J0D01*
G01X825901Y625453D02*
G03X824154Y622047I2445J-3406D01*
G01X825900Y625453D02*
G03X825717Y626024I-183J256D01*
G01X820976*
G03X820792Y625453I0J-315*
G01X822539Y622047D02*
G03X820792Y625453I-4193J0D01*
G01X814154Y622047D02*
G03X822539I4192J0D01*
G01X815901Y625453D02*
G03X814154Y622047I2445J-3406D01*
G01X815900Y625453D02*
G03X815717Y626024I-183J256D01*
G01X810976*
G03X810792Y625453I0J-315*
G01X812539Y622047D02*
G03X810792Y625453I-4193J0D01*
G01X804154Y622047D02*
G03X812539I4192J0D01*
G01X805901Y625453D02*
G03X804154Y622047I2445J-3406D01*
G01X805900Y625453D02*
G03X805717Y626024I-183J256D01*
G01X800976*
G03X800792Y625453I0J-315*
G01X802539Y622047D02*
G03X800792Y625453I-4193J0D01*
G01X801728Y619569D02*
G03X802539Y622047I-3382J2478D01*
G01X801728Y619569D02*
G03X801682Y619478I254J-187D01*
G01X800448Y615589*
G03X800433Y615494I300J-95*
G01Y604917*
X799822Y603441D02*
G03X800433Y604917I-1476J1476D01*
G01X799822Y603441D02*
X788218Y591837D01*
X786742Y591226D02*
G03X788217Y591837I0J2086D01*
G01X786742Y591226D02*
X778757D01*
G03X778534Y591134I-0J-315*
G01X757799Y570399*
G03X757711Y570229I223J-223*
G01X757263Y569146D02*
G03X757711Y570229I-2145J1523D01*
G01X757263Y569146D02*
G03X757205Y568964I257J-182D01*
G01Y556352*
G03X757297Y556130I315J0*
G01X757804Y555623*
G03X758027Y555530I223J222*
G01X790625*
G03X790807Y555588I-0J315*
G01Y551299D02*
G03Y555588I1523J2145D01*
G01Y551299D02*
G03X790625Y551357I-182J-257D01*
G01X757906*
G03X757684Y551265I0J-315*
G01X757297Y550878*
G03X757205Y550655I223J-223*
G01Y538712*
X756594Y537236D02*
G03X757205Y538712I-1476J1476D01*
G01X756594Y537236D02*
X752528Y533170D01*
X751052Y532559D02*
G03X752528Y533170I0J2087D01*
G01X751052Y532559D02*
X743706D01*
G03X743524Y532501I0J-315*
G01X739371Y534646D02*
G03X743524Y532501I2630J-0D01*
G01X739371Y534646D02*
X739371D01*
X739378Y534845D02*
G03X739371Y534646I2623J-199D01*
G01X739378Y534845D02*
G03X739379Y534869I-314J24D01*
X739102Y535181I-315J-0*
G01X738370Y535380D02*
G03X739102Y535181I1048J2413D01*
G01X738370Y535380D02*
G03X737929Y535091I-126J-289D01*
G01Y529920*
G03X737942Y529832I315J-0*
G01X738069Y529391*
G03X738160Y529245I303J87*
G01X734628D02*
G03X738160I1766J-1949D01*
G01X734628D02*
G03X734719Y529391I-212J233D01*
G01X734846Y529832*
G03X734858Y529920I-303J88*
G01Y559919*
X735308Y561005D02*
G03X734858Y559919I1086J-1086D01*
G01X735308Y561005D02*
X772385Y598081D01*
G03X772438Y598152I-223J223*
G01X772660Y598554*
G03X772699Y598706I-276J152*
G01X772699*
G03Y598722I-315J0*
G01X772695Y598851D02*
G03X772699Y598722I2631J0D01*
G01X777723Y599934D02*
G03X772695Y598851I-2397J-1083D01*
G01X777723Y599934D02*
G03X778232Y599841I287J130D01*
G01X778677Y600286*
X779521Y600717D02*
G03X778677Y600286I242J-1516D01*
G01X779521Y600717D02*
G03X779718Y600832I-50J311D01*
G01X780208Y597093D02*
G03X779718Y600832I1573J2108D01*
G01X780208Y597093D02*
G03X779797Y597063I-189J-253D01*
G01X778671Y595937*
G03X778578Y595714I222J-223*
X778893Y595399I315J0*
G01X785747*
G03X785970Y595491I0J315*
G01X796168Y605689*
G03X796260Y605912I-223J223*
G01Y615494*
G03X796245Y615589I-315J0*
G01X795011Y619478*
G03X794965Y619569I-300J-96*
G01X794154Y622047D02*
G03X794965Y619569I4192J0D01*
G01X795901Y625453D02*
G03X794154Y622047I2445J-3406D01*
G01X795900Y625453D02*
G03X795717Y626024I-183J256D01*
G01X790976*
G03X790792Y625453I0J-315*
G01X792539Y622047D02*
G03X790792Y625453I-4193J0D01*
G01X784154Y622047D02*
G03X792539I4192J0D01*
G01X785901Y625453D02*
G03X784154Y622047I2445J-3406D01*
G01X785900Y625453D02*
G03X785717Y626024I-183J256D01*
G01X782734*
G03X782446Y625582I0J-315*
G01X782539Y625138D02*
G03X782446Y625582I-1102J-0D01*
G01X782539Y625138D02*
Y618957D01*
X781437Y617854D02*
G03X782539Y618957I0J1103D01*
G01X781437Y617854D02*
X775256D01*
X774154Y618957D02*
G03X775256Y617854I1102J-0D01*
G01X774154Y618957D02*
Y625138D01*
X774247Y625582D02*
G03X774154Y625138I1009J-444D01*
G01X774247Y625582D02*
G03X773959Y626024I-288J127D01*
G01X770476*
G03X770161Y625709I0J-315*
X770169Y625639I315J-0*
G01X770197Y625394D02*
G03X770169Y625639I-1103J-0D01*
G01X770197Y625394D02*
Y618701D01*
X769094Y617598D02*
G03X770197Y618701I0J1103D01*
G01X769094Y617598D02*
X762402D01*
X761299Y618701D02*
G03X762402Y617598I1103J-0D01*
G01X761299Y618701D02*
Y625394D01*
X761327Y625639D02*
G03X761299Y625394I1075J-245D01*
G01X761327Y625639D02*
G03X761335Y625709I-307J70D01*
X761020Y626024I-315J-0*
G01X758796*
G03X758594Y625467I-0J-315*
G01X752902D02*
G03X758594I2846J-3420D01*
G01X752902D02*
G03X752700Y626024I-202J242D01*
G01X748796*
G03X748594Y625467I-0J-315*
G01X742902D02*
G03X748594I2846J-3420D01*
G01X742902D02*
G03X742700Y626024I-202J242D01*
G01X738796*
G03X738594Y625467I-0J-315*
G01X740197Y622047D02*
G03X738594Y625467I-4449J0D01*
G01X739137Y619165D02*
G03X740197Y622047I-3389J2882D01*
G01X739137Y619165D02*
G03X739089Y619089I240J-204D01*
G01X737311Y615089*
G03X737283Y614961I287J-128*
G01Y596549*
G03X737376Y596327I315J0*
G01X741381Y592321*
G03X741604Y592229I223J223*
G01X746566*
G03X746653Y592242I-0J315*
G01X747095Y592369*
G03X747241Y592460I-88J302*
G01X751820Y590694D02*
G03X747241Y592460I-2630J-0D01*
G01X751820Y590694D02*
X751820D01*
X751768Y590174D02*
G03X751820Y590694I-2578J520D01*
G01X751768Y590174D02*
G03X752041Y589799I309J-62D01*
G01X751414Y584576D02*
G03X752041Y589799I321J2611D01*
G01X751414Y584576D02*
G03X751153Y584486I-39J-312D01*
G01X749816Y583150*
X748730Y582700D02*
G03X749816Y583150I0J1535D01*
G01X748730Y582700D02*
X729258D01*
X728196Y583126D02*
G03X729258Y582700I1062J1109D01*
G01X728196Y583126D02*
G03X727945Y583211I-217J-228D01*
G01X730286Y586058D02*
G03X727945Y583211I-2620J-231D01*
G01X730286Y586058D02*
G03X730600Y585771I314J28D01*
G01X736609*
G03X736772Y586355I-0J315*
G01X736482Y586583D02*
G03X736772Y586355I1086J1085D01*
G01X736482Y586583D02*
X732305Y590760D01*
G03X732234Y590813I-223J-223*
G01X731832Y591035*
G03X731664Y591074I-152J-276*
G01X733680Y595224D02*
G03X731664Y591074I-2145J-1523D01*
G01X733680Y595224D02*
G03X734251Y595406I256J182D01*
G01X734251*
G03X734245Y595470I-315J0*
G01X734213Y595783D02*
G03X734245Y595470I1535J-0D01*
G01X734213Y595783D02*
Y614961D01*
G03X734185Y615089I-315J0*
G01X732407Y619089*
G03X732359Y619165I-288J-128*
G01X732902Y625467D02*
G03X732359Y619165I2846J-3420D01*
G01X732902Y625467D02*
G03X732700Y626024I-202J242D01*
G01X729779*
G03X729464Y625709I0J-315*
G01Y600964*
X729149Y600649D02*
G03X729464Y600964I0J315D01*
G01X729149Y600649D02*
X598447D01*
X598132Y600964D02*
G03X598447Y600649I315J0D01*
G01X598132Y600964D02*
Y625709D01*
G03X597817Y626024I-315J-0*
G01X429100*
G03X428810Y625831I0J-315*
G01X413882Y609375D02*
G03X428810Y625831I-15854J29381D01*
G01X413882Y609375D02*
G03X413717Y609098I150J-277D01*
G01Y418383*
G03X413882Y418105I315J-0*
G01X428810Y401650D02*
G03X413882Y418105I-30782J-12926D01*
G01X428810Y401650D02*
G03X429100Y401457I290J122D01*
G01X839482*
G03X839773Y401650I0J315*
G01X854701Y418106D02*
G03X839773Y401650I15854J-29382D01*
G01X854701Y418106D02*
G03X854866Y418383I-150J277D01*
G01Y609098*
X739618Y589741D02*
X734662Y594697D01*
X734587Y594779D02*
G03X734662Y594697I1161J1004D01*
G01X734587Y594779D02*
G03X734048Y594479I-239J-207D01*
G01X734165Y593701D02*
G03X734048Y594479I-2630J-0D01*
G01X734162Y593571D02*
G03X734165Y593701I-2627J130D01*
G01X734162Y593571D02*
G03Y593556I315J-15D01*
G01X734162*
G03X734201Y593404I315J0*
G01X734423Y593002*
G03X734476Y592931I276J152*
G01X738111Y589296*
G03X738334Y589204I223J223*
G01X739395*
G03X739618Y589741I0J315*
G01X852480Y459843D02*
Y453543D01*
X851378Y452441D02*
G03X852480Y453543I-0J1102D01*
G01X851378Y452441D02*
X841535D01*
X840433Y453543D02*
G03X841535Y452441I1102J0D01*
G01X840433Y453543D02*
Y459843D01*
X841535Y460945D02*
G03X840433Y459843I0J-1102D01*
G01X841535Y460945D02*
X851378D01*
X852480Y459843D02*
G03X851378Y460945I-1102J-0D01*
G01X848228Y462441D02*
X844685D01*
Y470945D02*
G03Y462441I0J-4252D01*
G01Y470945D02*
X848228D01*
Y462441D02*
G03Y470945I0J4252D01*
G01Y472441D02*
X844685D01*
Y480945D02*
G03Y472441I0J-4252D01*
G01Y480945D02*
X848228D01*
Y472441D02*
G03Y480945I0J4252D01*
G01Y482441D02*
X844685D01*
Y490945D02*
G03Y482441I0J-4252D01*
G01Y490945D02*
X848228D01*
Y482441D02*
G03Y490945I0J4252D01*
G01X837739Y420591D02*
G03X837739I-6540J0D01*
G01X828132Y592944D02*
G03X827964Y592905I-16J-315D01*
G01X827562Y592683*
G03X827491Y592630I152J-276*
G01X812176Y577314*
G03X812084Y577092I223J-222*
G01Y570422*
G03X812621Y570200I315J0*
G01X816220Y573798*
G03X816273Y573868I-223J223*
G01X816495Y574271*
G03X816534Y574423I-276J152*
G01X816534*
G03Y574438I-315J-0*
G01X816530Y574568D02*
G03X816534Y574438I2631J-0D01*
G01X819031Y571940D02*
G03X816530Y574568I130J2628D01*
G01X819031Y571940D02*
G03X818864Y571902I-15J-314D01*
G01X818462Y571680*
G03X818391Y571626I152J-276*
G01Y571627D02*
X815289Y568524D01*
G03X815197Y568302I223J-222*
G01Y561171*
G03X815209Y561084I315J0*
G01X815336Y560642*
G03X815427Y560496I303J88*
G01X812534Y556171D02*
G03X815427Y560496I1127J2376D01*
G01X812534Y556171D02*
G03X812084Y555886I-135J-285D01*
G01Y553265*
G03X812176Y553043I315J0*
G01X823979Y541239*
X824429Y540154D02*
G03X823979Y541239I-1536J-0D01*
G01X824429Y540154D02*
Y496386D01*
G03X824441Y496298I315J-0*
G01X824569Y495857*
G03X824660Y495711I302J87*
G01X821127D02*
G03X824660I1766J-1949D01*
G01X821127D02*
G03X821218Y495857I-211J233D01*
G01X821346Y496298*
G03X821358Y496386I-303J88*
G01Y539387*
G03X821266Y539610I-315J0*
G01X809462Y551413*
X809013Y552499D02*
G03X809462Y551413I1535J-0D01*
G01X809013Y552499D02*
Y552624D01*
G03X808413Y552759I-315J-0*
G01X804274Y555842D02*
G03X808413Y552759I1766J-1949D01*
G01X804274Y555842D02*
G03X804365Y555988I-212J233D01*
G01X804492Y556429*
G03X804505Y556517I-302J88*
G01Y583328*
X804954Y584413D02*
G03X804505Y583328I1086J-1085D01*
G01X804954Y584413D02*
X815169Y594628D01*
G03X815222Y594699I-223J223*
G01X815444Y595101*
G03X815483Y595253I-275J152*
G01X815483*
G03Y595269I-314J0*
G01X815480Y595398D02*
G03X815483Y595269I2630J-0D01*
G01X817981Y592771D02*
G03X815480Y595398I129J2627D01*
G01X817981Y592771D02*
G03X817813Y592732I-16J-315D01*
G01X817411Y592510*
G03X817341Y592457I152J-276*
G01X807668Y582784*
G03X807575Y582561I222J-223*
G01Y565252*
G03X808175Y565116I315J0*
G01X808782Y565932D02*
G03X808175Y565116I1766J-1949D01*
G01X808782Y565932D02*
G03X808873Y566078I-212J233D01*
G01X809000Y566519*
G03X809013Y566607I-302J88*
G01Y577858*
X809462Y578944D02*
G03X809013Y577858I1086J-1086D01*
G01X809462Y578944D02*
X825320Y594801D01*
G03X825373Y594872I-223J223*
G01X825595Y595274*
G03X825634Y595426I-276J152*
G01X825634*
G03Y595442I-315J0*
G01X825631Y595571D02*
G03X825634Y595442I2630J-0D01*
G01X828132Y592944D02*
G03X825631Y595571I129J2627D01*
G01X752717Y435000D02*
G03X752717I-12126J0D01*
G01X784437Y583093D02*
G03X784323Y582851I201J-242D01*
G01Y574007*
G03X784434Y573767I315J0*
G01X780109Y571990D02*
G03X784434Y573767I2621J-227D01*
G01X780109Y571990D02*
G03X779670Y572306I-314J27D01*
G01X777050Y576826D02*
G03X779670Y572306I1576J-2106D01*
G01X777050Y576826D02*
G03X777177Y577078I-188J252D01*
G01Y582784*
G03X777164Y582871I-315J-0*
G01X777037Y583312*
G03X776946Y583458I-303J-87*
G01X780655Y587181D02*
G03X776946Y583458I-1943J-1774D01*
G01X780655Y587181D02*
G03X781087Y587150I232J212D01*
G01X784437Y583093D02*
G03X781087Y587150I-1678J2026D01*
G01X704732Y498576D02*
G03X704588Y498670I-237J-207D01*
G01X704169Y498799*
G03X704076Y498813I-93J-301*
G01X694673*
G03X694450Y498721I-0J-315*
G01X683214Y487485*
G03X683158Y487409I222J-223*
G01X682953Y487021*
G03X682916Y486874I278J-147*
X682917Y486853I315J-0*
G01X682923Y486679D02*
G03X682917Y486853I-2631J0D01*
G01X682923Y486679D02*
X682923D01*
X677662D02*
G03X682923I2630J0D01*
G01X680466Y489304D02*
G03X677662Y486679I-174J-2625D01*
G01X680466Y489304D02*
G03X680634Y489340I21J314D01*
G01X681022Y489545*
G03X681098Y489600I-147J278*
G01X692865Y501367*
X692930Y501429D02*
G03X692865Y501367I992J-1120D01*
G01X692930Y501429D02*
G03X692721Y501979I-209J235D01*
G01X629645*
G03X629395Y501857I-0J-315*
G01X625650Y505501D02*
G03X629395Y501857I1662J-2038D01*
G01X625650Y505501D02*
G03X625717Y505914I-199J245D01*
G01X625308Y507323D02*
G03X625717Y505914I2630J-0D01*
G01X628290Y509930D02*
G03X625308Y507323I-352J-2607D01*
G01X628290Y509930D02*
G03X628636Y510325I42J312D01*
G01X628541Y511024D02*
G03X628636Y510325I2631J-0D01*
G01X628541Y511024D02*
X628541D01*
X631996Y513521D02*
G03X628541Y511024I-824J-2497D01*
G01X631996Y513521D02*
G03X632410Y513821I99J300D01*
X632318Y514043I-315J-0*
G01X614969Y531392*
G03X614746Y531484I-223J-223*
G01X483807*
G03X483719Y531472I-0J-315*
G01X483278Y531345*
G03X483132Y531254I87J-303*
G01Y534786D02*
G03Y531254I-1949J-1766D01*
G01Y534786D02*
G03X483278Y534695I233J212D01*
G01X483719Y534568*
G03X483807Y534555I88J302*
G01X578984*
G03X579299Y534870I-0J315*
X579206Y535093I-315J0*
G01X570178Y544121*
X569567Y545597D02*
G03X570178Y544121I2087J-0D01*
G01X569567Y545597D02*
Y584606D01*
G03X569509Y584789I-315J0*
G01X573798D02*
G03X569509I-2144J1522D01*
G01X573798D02*
G03X573740Y584606I257J-183D01*
G01Y546592*
G03X573832Y546369I315J-0*
G01X582681Y537520*
G03X582904Y537428I223J223*
G01X618108*
X619583Y536817D02*
G03X618108Y537428I-1475J-1476D01*
G01X619583Y536817D02*
X636111Y520289D01*
G03X636334Y520197I223J223*
G01X639524*
G03X639707Y520255I0J315*
G01X643034Y516196D02*
G03X639707Y520255I-1805J1914D01*
G01X643034Y516196D02*
G03X643250Y515652I216J-229D01*
G01X691868*
G03X692091Y515745I0J315*
G01X692243Y515897*
G03X692335Y516119I-223J222*
G01X692335*
G03Y516140I-315J0*
G01X692329Y516311D02*
G03X692335Y516140I2630J-0D01*
G01X694577Y513708D02*
G03X692329Y516311I382J2603D01*
G01X694577Y513708D02*
G03X694309Y513619I-46J-311D01*
G01X693720Y513031*
X692634Y512581D02*
G03X693720Y513031I1J1536D01*
G01X692634Y512581D02*
X645678D01*
G03X645363Y512266I-0J-315*
X645392Y512134I315J0*
G01X645035Y509348D02*
G03X645392Y512134I-2027J1676D01*
G01X645035Y509348D02*
G03X644963Y509147I243J-201D01*
X645278Y508833I315J0*
G01X676804*
G03X676892Y508845I0J314*
G01X677333Y508972*
G03X677479Y509063I-87J303*
G01X681414Y505572D02*
G03X677479Y509063I-1986J1725D01*
G01X681414Y505572D02*
G03X681652Y505050I238J-207D01*
G01X698598*
X698719Y505046D02*
G03X698598Y505050I-120J-1531D01*
G01X698719Y505046D02*
G03X698744Y505045I25J314D01*
G01X700621*
G03X700708Y505057I-0J315*
G01X701149Y505184*
G03X701295Y505275I-87J303*
G01X705875Y503509D02*
G03X701295Y505275I-2631J0D01*
G01X705875Y503509D02*
X705875D01*
X705861Y503238D02*
G03X705875Y503509I-2617J271D01*
G01X705861Y503238D02*
G03X706231Y502896I313J-33D01*
G01X704732Y498576D02*
G03X706231Y502896I1979J1733D01*
G01X706040Y584061D02*
G03X705894Y584152I-234J-212D01*
G01X705452Y584279*
G03X705365Y584291I-87J-303*
G01X702295*
G03X702187Y584272I0J-315*
G01X700198Y583547*
G03X700120Y583506I108J-296*
G01Y588148D02*
G03Y583506I-1695J-2321D01*
G01Y588148D02*
G03X700198Y588106I186J254D01*
G01X702187Y587381*
G03X702295Y587362I108J296*
G01X705365*
G03X705452Y587375I0J315*
G01X705894Y587502*
G03X706040Y587593I-88J303*
G01Y584061D02*
G03Y587593I1949J1766D01*
G01X706027Y591935D02*
G03X705881Y592026I-234J-212D01*
G01X705439Y592153*
G03X705352Y592165I-87J-303*
G01X702295*
G03X702187Y592146I0J-315*
G01X700198Y591421*
G03X700120Y591380I108J-296*
G01Y596022D02*
G03Y591380I-1695J-2321D01*
G01Y596022D02*
G03X700198Y595981I186J254D01*
G01X702187Y595255*
G03X702295Y595236I108J296*
G01X705352*
G03X705439Y595249I0J315*
G01X705881Y595376*
G03X706027Y595467I-88J303*
G01Y591935D02*
G03Y595467I1949J1766D01*
G01X637977Y538033D02*
G03X637947Y537947I279J-146D01*
G01X637526Y535786*
G03X637520Y535726I309J-60*
G01Y534710*
G03X637578Y534528I315J-0*
G01X633288D02*
G03X637578I2145J-1523D01*
G01X633288D02*
G03X633346Y534710I-257J182D01*
G01Y535726*
G03X633341Y535786I-315J-0*
G01X632919Y537947*
G03X632889Y538033I-309J-60*
G01X637977D02*
G03X632889I-2544J1337D01*
G01X474764Y435000D02*
G03X474764I-9764J0D01*
G01X525292Y582988D02*
G03X525201Y582842I212J-233D01*
G01X525074Y582401*
G03X525062Y582313I303J-88*
G01Y571734*
X524612Y570649D02*
G03X525062Y571734I-1086J1085D01*
G01X524612Y570649D02*
X505554Y551591D01*
X504468Y551141D02*
G03X505554Y551591I0J1535D01*
G01X504468Y551141D02*
X461225D01*
G03X461138Y551129I0J-315*
G01X460697Y551001*
G03X460551Y550910I87J-302*
G01Y554443D02*
G03Y550910I-1949J-1767D01*
G01Y554443D02*
G03X460697Y554352I233J211D01*
G01X461138Y554224*
G03X461225Y554212I87J303*
G01X503702*
G03X503925Y554304I-0J315*
G01X506589Y556969*
G03X506681Y557191I-223J222*
X506366Y557506I-315J0*
G01X441206*
G03X441119Y557494I0J-315*
G01X440678Y557367*
G03X440532Y557276I87J-303*
G01Y560808D02*
G03Y557276I-1949J-1766D01*
G01Y560808D02*
G03X440678Y560717I233J212D01*
G01X441119Y560590*
G03X441206Y560577I87J302*
G01X506634*
G03X506857Y560670I0J315*
G01X516642Y570454*
G03X516734Y570677I-223J223*
G01Y582069*
G03X516722Y582157I-315J0*
G01X516594Y582598*
G03X516503Y582744I-302J-87*
G01X520562Y585983D02*
G03X516503Y582744I-2293J-1290D01*
G01X520562Y585983D02*
G03X521124Y586009I274J154D01*
G01X525292Y582988D02*
G03X521124Y586009I-1766J1949D01*
G01X474764Y592480D02*
G03X474764I-9764J0D01*
G01X438546D02*
G03X438546I-3074J0D01*
G01X442173Y609352D02*
G03X442173I-6540J0D01*
G01X800433Y608951D02*
X854866D01*
X800433Y608385D02*
X854866D01*
X800433Y607818D02*
X854866D01*
X800433Y607251D02*
X854866D01*
X800433Y606684D02*
X854866D01*
X800433Y606117D02*
X854866D01*
X800433Y605550D02*
X854866D01*
X800433Y604983D02*
X854866D01*
X800372Y604416D02*
X854866D01*
X800139Y603849D02*
X854866D01*
X799663Y603282D02*
X854866D01*
X799096Y602715D02*
X854866D01*
X798529Y602148D02*
X854866D01*
X797962Y601581D02*
X854866D01*
X797395Y601014D02*
X854866D01*
X796828Y600448D02*
X854866D01*
X796261Y599881D02*
X854866D01*
X795694Y599314D02*
X854866D01*
X795127Y598747D02*
X854866D01*
X828595Y598180D02*
X854866D01*
X829919Y597613D02*
X854866D01*
X830439Y597046D02*
X854866D01*
X830729Y596479D02*
X854866D01*
X830869Y595912D02*
X854866D01*
X830882Y595345D02*
X854866D01*
X830769Y594778D02*
X854866D01*
X830513Y594211D02*
X854866D01*
X830052Y593644D02*
X854866D01*
X829099Y593077D02*
X854866D01*
X827372Y592511D02*
X854866D01*
X826805Y591944D02*
X854866D01*
X826238Y591377D02*
X854866D01*
X825671Y590810D02*
X854866D01*
X825104Y590243D02*
X854866D01*
X824537Y589676D02*
X854866D01*
X823970Y589109D02*
X854866D01*
X823404Y588542D02*
X854866D01*
X822837Y587975D02*
X854866D01*
X822270Y587408D02*
X854866D01*
X821703Y586841D02*
X854866D01*
X821136Y586274D02*
X854866D01*
X820569Y585707D02*
X854866D01*
X820002Y585140D02*
X854866D01*
X819435Y584574D02*
X854866D01*
X818868Y584007D02*
X854866D01*
X818301Y583440D02*
X854866D01*
X817734Y582873D02*
X854866D01*
X817167Y582306D02*
X854866D01*
X816600Y581739D02*
X854866D01*
X816033Y581172D02*
X854866D01*
X815467Y580605D02*
X854866D01*
X814900Y580038D02*
X854866D01*
X814333Y579471D02*
X854866D01*
X813766Y578904D02*
X854866D01*
X813199Y578337D02*
X854866D01*
X812632Y577770D02*
X854866D01*
X812104Y577203D02*
X854866D01*
X820785Y576637D02*
X854866D01*
X821320Y576070D02*
X854866D01*
X821619Y575503D02*
X854866D01*
X821765Y574936D02*
X854866D01*
X821784Y574369D02*
X854866D01*
X821677Y573802D02*
X854866D01*
X821428Y573235D02*
X854866D01*
X820980Y572668D02*
X854866D01*
X820075Y572101D02*
X854866D01*
X818299Y571534D02*
X854866D01*
X817732Y570967D02*
X854866D01*
X817165Y570400D02*
X854866D01*
X816598Y569833D02*
X854866D01*
X816031Y569266D02*
X854866D01*
X815464Y568699D02*
X854866D01*
X815197Y568133D02*
X854866D01*
X815197Y567566D02*
X854866D01*
X815197Y566999D02*
X854866D01*
X815197Y566432D02*
X854866D01*
X815197Y565865D02*
X854866D01*
X815197Y565298D02*
X854866D01*
X815197Y564731D02*
X854866D01*
X815197Y564164D02*
X854866D01*
X815197Y563597D02*
X854866D01*
X815197Y563030D02*
X854866D01*
X815197Y562463D02*
X854866D01*
X815197Y561896D02*
X854866D01*
X815197Y561329D02*
X854866D01*
X815302Y560762D02*
X854866D01*
X815711Y560196D02*
X854866D01*
X816059Y559629D02*
X854866D01*
X816241Y559062D02*
X854866D01*
X816291Y558495D02*
X854866D01*
X816218Y557928D02*
X854866D01*
X816009Y557361D02*
X854866D01*
X815622Y556794D02*
X854866D01*
X814900Y556227D02*
X854866D01*
X812084Y555660D02*
X854866D01*
X812084Y555093D02*
X854866D01*
X812084Y554526D02*
X854866D01*
X812084Y553959D02*
X854866D01*
X812084Y553392D02*
X854866D01*
X812393Y552825D02*
X854866D01*
X812960Y552259D02*
X854866D01*
X813527Y551692D02*
X854866D01*
X814094Y551125D02*
X854866D01*
X814661Y550558D02*
X854866D01*
X815228Y549991D02*
X854866D01*
X815795Y549424D02*
X854866D01*
X816361Y548857D02*
X854866D01*
X816928Y548290D02*
X854866D01*
X817495Y547723D02*
X854866D01*
X818062Y547156D02*
X854866D01*
X818629Y546589D02*
X854866D01*
X819196Y546022D02*
X854866D01*
X819763Y545455D02*
X854866D01*
X820330Y544888D02*
X854866D01*
X820897Y544322D02*
X854866D01*
X821464Y543755D02*
X854866D01*
X822031Y543188D02*
X854866D01*
X822598Y542621D02*
X854866D01*
X823165Y542054D02*
X854866D01*
X823732Y541487D02*
X854866D01*
X824224Y540920D02*
X854866D01*
X824416Y540353D02*
X854866D01*
X824429Y539786D02*
X854866D01*
X824429Y539219D02*
X854866D01*
X824429Y538652D02*
X854866D01*
X824429Y538085D02*
X854866D01*
X824429Y537518D02*
X854866D01*
X824429Y536951D02*
X854866D01*
X824429Y536385D02*
X854866D01*
X824429Y535818D02*
X854866D01*
X824429Y535251D02*
X854866D01*
X824429Y534684D02*
X854866D01*
X824429Y534117D02*
X854866D01*
X824429Y533550D02*
X854866D01*
X824429Y532983D02*
X854866D01*
X824429Y532416D02*
X854866D01*
X824429Y531849D02*
X854866D01*
X824429Y531282D02*
X854866D01*
X824429Y530715D02*
X854866D01*
X824429Y530148D02*
X854866D01*
X824429Y529581D02*
X854866D01*
X824429Y529014D02*
X854866D01*
X824429Y528448D02*
X854866D01*
X824429Y527881D02*
X854866D01*
X824429Y527314D02*
X854866D01*
X824429Y526747D02*
X854866D01*
X824429Y526180D02*
X854866D01*
X824429Y525613D02*
X854866D01*
X824429Y525046D02*
X854866D01*
X824429Y524479D02*
X854866D01*
X824429Y523912D02*
X854866D01*
X824429Y523345D02*
X854866D01*
X824429Y522778D02*
X854866D01*
X824429Y522211D02*
X854866D01*
X824429Y521644D02*
X854866D01*
X824429Y521077D02*
X854866D01*
X824429Y520511D02*
X854866D01*
X824429Y519944D02*
X854866D01*
X824429Y519377D02*
X854866D01*
X824429Y518810D02*
X854866D01*
X824429Y518243D02*
X854866D01*
X824429Y517676D02*
X854866D01*
X824429Y517109D02*
X854866D01*
X824429Y516542D02*
X854866D01*
X824429Y515975D02*
X854866D01*
X824429Y515408D02*
X854866D01*
X824429Y514841D02*
X854866D01*
X824429Y514274D02*
X854866D01*
X824429Y513707D02*
X854866D01*
X824429Y513140D02*
X854866D01*
X824429Y512574D02*
X854866D01*
X824429Y512007D02*
X854866D01*
X824429Y511440D02*
X854866D01*
X824429Y510873D02*
X854866D01*
X824429Y510306D02*
X854866D01*
X824429Y509739D02*
X854866D01*
X824429Y509172D02*
X854866D01*
X824429Y508605D02*
X854866D01*
X824429Y508038D02*
X854866D01*
X824429Y507471D02*
X854866D01*
X824429Y506904D02*
X854866D01*
X824429Y506337D02*
X854866D01*
X824429Y505770D02*
X854866D01*
X824429Y505203D02*
X854866D01*
X824429Y504637D02*
X854866D01*
X824429Y504070D02*
X854866D01*
X824429Y503503D02*
X854866D01*
X824429Y502936D02*
X854866D01*
X824429Y502369D02*
X854866D01*
X824429Y501802D02*
X854866D01*
X824429Y501235D02*
X854866D01*
X824429Y500668D02*
X854866D01*
X824429Y500101D02*
X854866D01*
X824429Y499534D02*
X854866D01*
X824429Y498967D02*
X854866D01*
X824429Y498400D02*
X854866D01*
X824429Y497833D02*
X854866D01*
X824429Y497266D02*
X854866D01*
X824429Y496699D02*
X854866D01*
X824489Y496133D02*
X854866D01*
X824808Y495566D02*
X854866D01*
X825215Y494999D02*
X854866D01*
X825437Y494432D02*
X854866D01*
X825522Y493865D02*
X854866D01*
X825483Y493298D02*
X854866D01*
X825313Y492731D02*
X854866D01*
X824983Y492164D02*
X854866D01*
X824388Y491597D02*
X854866D01*
X686759Y491030D02*
X854866D01*
X850194Y490463D02*
X854866D01*
X851024Y489896D02*
X854866D01*
X851564Y489329D02*
X854866D01*
X851943Y488762D02*
X854866D01*
X852206Y488196D02*
X854866D01*
X852376Y487629D02*
X854866D01*
X852464Y487062D02*
X854866D01*
X852476Y486495D02*
X854866D01*
X852411Y485928D02*
X854866D01*
X852266Y485361D02*
X854866D01*
X852033Y484794D02*
X854866D01*
X851692Y484227D02*
X854866D01*
X851209Y483660D02*
X854866D01*
X850491Y483093D02*
X854866D01*
X849076Y482526D02*
X854866D01*
X413717Y481959D02*
X854866D01*
X413717Y481392D02*
X854866D01*
X849229Y480825D02*
X854866D01*
X850545Y480259D02*
X854866D01*
X851243Y479692D02*
X854866D01*
X851716Y479125D02*
X854866D01*
X852050Y478558D02*
X854866D01*
X852277Y477991D02*
X854866D01*
X852417Y477424D02*
X854866D01*
X852477Y476857D02*
X854866D01*
X852461Y476290D02*
X854866D01*
X852368Y475723D02*
X854866D01*
X852193Y475156D02*
X854866D01*
X851923Y474589D02*
X854866D01*
X851537Y474022D02*
X854866D01*
X850985Y473455D02*
X854866D01*
X850127Y472888D02*
X854866D01*
X413717Y472322D02*
X854866D01*
X413717Y471755D02*
X854866D01*
X413717Y471188D02*
X854866D01*
X849857Y470621D02*
X854866D01*
X850833Y470054D02*
X854866D01*
X851434Y469487D02*
X854866D01*
X851851Y468920D02*
X854866D01*
X852143Y468353D02*
X854866D01*
X852337Y467786D02*
X854866D01*
X852448Y467219D02*
X854866D01*
X852480Y466652D02*
X854866D01*
X852437Y466085D02*
X854866D01*
X852315Y465518D02*
X854866D01*
X852107Y464951D02*
X854866D01*
X851799Y464385D02*
X854866D01*
X851361Y463818D02*
X854866D01*
X850724Y463251D02*
X854866D01*
X849644Y462684D02*
X854866D01*
X413717Y462117D02*
X854866D01*
X413717Y461550D02*
X854866D01*
X413717Y460983D02*
X854866D01*
X852319Y460416D02*
X854866D01*
X852480Y459849D02*
X854866D01*
X852480Y459282D02*
X854866D01*
X852480Y458715D02*
X854866D01*
X852480Y458148D02*
X854866D01*
X852480Y457581D02*
X854866D01*
X852480Y457014D02*
X854866D01*
X852480Y456448D02*
X854866D01*
X852480Y455881D02*
X854866D01*
X852480Y455314D02*
X854866D01*
X852480Y454747D02*
X854866D01*
X852480Y454180D02*
X854866D01*
X852480Y453613D02*
X854866D01*
X852362Y453046D02*
X854866D01*
X851665Y452479D02*
X854866D01*
X413717Y451912D02*
X854866D01*
X413717Y451345D02*
X854866D01*
X413717Y450778D02*
X854866D01*
X413717Y450211D02*
X854866D01*
X413717Y449644D02*
X854866D01*
X413717Y449077D02*
X854866D01*
X413717Y448511D02*
X854866D01*
X413717Y447944D02*
X854866D01*
X413717Y447377D02*
X854866D01*
X743342Y446810D02*
X854866D01*
X745134Y446243D02*
X854866D01*
X746341Y445676D02*
X854866D01*
X747287Y445109D02*
X854866D01*
X748073Y444542D02*
X854866D01*
X748745Y443975D02*
X854866D01*
X749328Y443408D02*
X854866D01*
X749840Y442841D02*
X854866D01*
X750292Y442274D02*
X854866D01*
X750693Y441707D02*
X854866D01*
X751047Y441140D02*
X854866D01*
X751360Y440574D02*
X854866D01*
X751635Y440007D02*
X854866D01*
X751875Y439440D02*
X854866D01*
X752081Y438873D02*
X854866D01*
X752257Y438306D02*
X854866D01*
X752403Y437739D02*
X854866D01*
X752520Y437172D02*
X854866D01*
X752610Y436605D02*
X854866D01*
X752672Y436038D02*
X854866D01*
X752707Y435471D02*
X854866D01*
X752716Y434904D02*
X854866D01*
X752698Y434337D02*
X854866D01*
X752654Y433770D02*
X854866D01*
X752583Y433203D02*
X854866D01*
X752484Y432637D02*
X854866D01*
X752357Y432070D02*
X854866D01*
X752201Y431503D02*
X854866D01*
X752015Y430936D02*
X854866D01*
X751797Y430369D02*
X854866D01*
X751546Y429802D02*
X854866D01*
X751258Y429235D02*
X854866D01*
X750932Y428668D02*
X854866D01*
X750563Y428101D02*
X854866D01*
X750146Y427534D02*
X854866D01*
X832654Y426967D02*
X854866D01*
X834203Y426400D02*
X854866D01*
X835109Y425833D02*
X854866D01*
X835772Y425266D02*
X854866D01*
X836288Y424699D02*
X854866D01*
X836697Y424133D02*
X854866D01*
X837024Y423566D02*
X854866D01*
X837280Y422999D02*
X854866D01*
X837475Y422432D02*
X854866D01*
X837614Y421865D02*
X854866D01*
X837701Y421298D02*
X854866D01*
X837738Y420731D02*
X854866D01*
X837725Y420164D02*
X854866D01*
X837663Y419597D02*
X854866D01*
X837550Y419030D02*
X854866D01*
X837384Y418463D02*
X854866D01*
X800433Y609518D02*
X854437D01*
X837158Y417896D02*
X854319D01*
X800433Y610085D02*
X853449D01*
X836868Y417329D02*
X853340D01*
X800433Y610652D02*
X852533D01*
X836502Y416762D02*
X852431D01*
X800433Y611219D02*
X851678D01*
X836042Y416196D02*
X851583D01*
X800433Y611786D02*
X850877D01*
X835459Y415629D02*
X850787D01*
X800433Y612353D02*
X850122D01*
X834692Y415062D02*
X850038D01*
X800433Y612920D02*
X849410D01*
X833567Y414495D02*
X849330D01*
X800433Y613487D02*
X848736D01*
X419923Y413928D02*
X848660D01*
X800433Y614054D02*
X848096D01*
X420559Y413361D02*
X848024D01*
X800433Y614621D02*
X847488D01*
X421163Y412794D02*
X847419D01*
X800433Y615188D02*
X846909D01*
X421739Y412227D02*
X846844D01*
X800500Y615755D02*
X846357D01*
X422288Y411660D02*
X846295D01*
X800680Y616322D02*
X845830D01*
X422811Y411093D02*
X845771D01*
X800860Y616888D02*
X845328D01*
X423312Y410526D02*
X845271D01*
X801040Y617455D02*
X844847D01*
X423790Y409959D02*
X844793D01*
X829522Y618022D02*
X844388D01*
X424247Y409392D02*
X844336D01*
X830718Y618589D02*
X843948D01*
X424684Y408825D02*
X843899D01*
X413717Y482526D02*
X843837D01*
X413717Y480825D02*
X843684D01*
X831383Y619156D02*
X843528D01*
X425102Y408259D02*
X843481D01*
X413717Y462684D02*
X843269D01*
X831836Y619723D02*
X843126D01*
X425502Y407692D02*
X843080D01*
X413717Y470621D02*
X843056D01*
X413717Y472888D02*
X842786D01*
X832153Y620290D02*
X842741D01*
X686192Y490463D02*
X842719D01*
X425885Y407125D02*
X842698D01*
X413717Y483093D02*
X842422D01*
X832367Y620857D02*
X842373D01*
X413717Y480259D02*
X842369D01*
X426251Y406558D02*
X842331D01*
X413717Y463251D02*
X842189D01*
X413717Y470054D02*
X842080D01*
X832493Y621424D02*
X842021D01*
X426602Y405991D02*
X841981D01*
X413717Y473455D02*
X841929D01*
X685625Y489896D02*
X841889D01*
X413717Y483660D02*
X841705D01*
X832539Y621991D02*
X841684D01*
X413717Y479692D02*
X841671D01*
X426937Y405424D02*
X841646D01*
X413717Y463818D02*
X841553D01*
X413717Y469487D02*
X841480D01*
X413717Y474022D02*
X841376D01*
X832508Y622558D02*
X841362D01*
X685058Y489329D02*
X841349D01*
X427257Y404857D02*
X841326D01*
X413717Y452479D02*
X841248D01*
X681244Y484227D02*
X841221D01*
X413717Y479125D02*
X841197D01*
X413717Y464385D02*
X841114D01*
X413717Y468920D02*
X841063D01*
X832399Y623125D02*
X841055D01*
X427563Y404290D02*
X841020D01*
X413717Y474589D02*
X840990D01*
X684491Y488762D02*
X840971D01*
X682127Y484794D02*
X840881D01*
X413717Y478558D02*
X840864D01*
X413717Y464951D02*
X840806D01*
X413717Y468353D02*
X840770D01*
X832203Y623692D02*
X840761D01*
X427855Y403723D02*
X840728D01*
X413717Y475156D02*
X840720D01*
X683924Y488196D02*
X840707D01*
X682568Y485361D02*
X840647D01*
X413717Y477991D02*
X840636D01*
X413717Y465518D02*
X840599D01*
X413717Y460416D02*
X840594D01*
X413717Y467786D02*
X840576D01*
X413717Y453046D02*
X840552D01*
X413717Y475723D02*
X840545D01*
X683358Y487629D02*
X840537D01*
X682813Y485928D02*
X840502D01*
X413717Y477424D02*
X840496D01*
X831909Y624259D02*
X840481D01*
X413717Y466085D02*
X840477D01*
X413717Y467219D02*
X840466D01*
X413717Y476290D02*
X840452D01*
X428133Y403156D02*
X840450D01*
X682974Y487062D02*
X840449D01*
X682916Y486495D02*
X840438D01*
X413717Y476857D02*
X840436D01*
X413717Y466652D02*
X840433D01*
X413717Y459849D02*
X840433D01*
X413717Y459282D02*
X840433D01*
X413717Y458715D02*
X840433D01*
X413717Y458148D02*
X840433D01*
X413717Y457581D02*
X840433D01*
X413717Y457014D02*
X840433D01*
X413717Y456448D02*
X840433D01*
X413717Y455881D02*
X840433D01*
X413717Y455314D02*
X840433D01*
X413717Y454747D02*
X840433D01*
X413717Y454180D02*
X840433D01*
X413717Y453613D02*
X840433D01*
X831487Y624825D02*
X840214D01*
X428398Y402589D02*
X840184D01*
X830874Y625392D02*
X839960D01*
X428651Y402022D02*
X839932D01*
X830785Y625959D02*
X839673D01*
X749674Y426967D02*
X829745D01*
X419252Y414495D02*
X828832D01*
X749140Y426400D02*
X828196D01*
X794560Y598180D02*
X827927D01*
X418545Y415062D02*
X827707D01*
X748529Y425833D02*
X827289D01*
X819522Y618022D02*
X827171D01*
X417795Y415629D02*
X826940D01*
X747822Y425266D02*
X826627D01*
X819529Y597613D02*
X826603D01*
X417000Y416196D02*
X826357D01*
X746989Y424699D02*
X826111D01*
X820160Y597046D02*
X826083D01*
X820718Y618589D02*
X825975D01*
X820785Y625959D02*
X825907D01*
X416151Y416762D02*
X825897D01*
X820874Y625392D02*
X825818D01*
X820508Y596479D02*
X825792D01*
X745970Y424133D02*
X825701D01*
X820690Y595912D02*
X825653D01*
X820740Y595345D02*
X825624D01*
X415243Y417329D02*
X825531D01*
X744627Y423566D02*
X825375D01*
X821383Y619156D02*
X825310D01*
X820667Y594778D02*
X825297D01*
X414263Y417896D02*
X825240D01*
X821487Y624825D02*
X825206D01*
X742325Y422999D02*
X825119D01*
X413717Y418463D02*
X825015D01*
X413717Y422432D02*
X824924D01*
X821836Y619723D02*
X824857D01*
X413717Y419030D02*
X824848D01*
X413717Y421865D02*
X824785D01*
X821909Y624259D02*
X824784D01*
X413717Y419597D02*
X824735D01*
X820458Y594211D02*
X824730D01*
X413717Y421298D02*
X824698D01*
X413717Y420164D02*
X824673D01*
X413717Y420731D02*
X824661D01*
X822153Y620290D02*
X824539D01*
X822203Y623692D02*
X824489D01*
X822367Y620857D02*
X824326D01*
X822399Y623125D02*
X824294D01*
X822493Y621424D02*
X824200D01*
X822508Y622558D02*
X824185D01*
X820071Y593644D02*
X824163D01*
X822539Y621991D02*
X824154D01*
X819349Y593077D02*
X823596D01*
X817412Y592511D02*
X823029D01*
X816827Y591944D02*
X822462D01*
X816260Y591377D02*
X821895D01*
X687326Y491597D02*
X821399D01*
X757205Y539219D02*
X821358D01*
X757204Y538652D02*
X821358D01*
X757109Y538085D02*
X821358D01*
X756830Y537518D02*
X821358D01*
X756309Y536951D02*
X821358D01*
X755742Y536385D02*
X821358D01*
X755175Y535818D02*
X821358D01*
X754608Y535251D02*
X821358D01*
X754041Y534684D02*
X821358D01*
X753474Y534117D02*
X821358D01*
X752907Y533550D02*
X821358D01*
X752313Y532983D02*
X821358D01*
X743397Y532416D02*
X821358D01*
X737929Y531849D02*
X821358D01*
X737929Y531282D02*
X821358D01*
X737929Y530715D02*
X821358D01*
X737929Y530148D02*
X821358D01*
X738014Y529581D02*
X821358D01*
X738385Y529014D02*
X821358D01*
X738759Y528448D02*
X821358D01*
X738958Y527881D02*
X821358D01*
X739024Y527314D02*
X821358D01*
X738966Y526747D02*
X821358D01*
X738776Y526180D02*
X821358D01*
X738415Y525613D02*
X821358D01*
X737756Y525046D02*
X821358D01*
X631921Y524479D02*
X821358D01*
X632488Y523912D02*
X821358D01*
X633055Y523345D02*
X821358D01*
X633622Y522778D02*
X821358D01*
X634189Y522211D02*
X821358D01*
X634756Y521644D02*
X821358D01*
X635323Y521077D02*
X821358D01*
X642305Y520511D02*
X821358D01*
X643115Y519944D02*
X821358D01*
X643535Y519377D02*
X821358D01*
X695780Y518810D02*
X821358D01*
X696744Y518243D02*
X821358D01*
X697208Y517676D02*
X821358D01*
X697466Y517109D02*
X821358D01*
X697579Y516542D02*
X821358D01*
X697568Y515975D02*
X821358D01*
X697430Y515408D02*
X821358D01*
X697141Y514841D02*
X821358D01*
X696624Y514274D02*
X821358D01*
X695336Y513707D02*
X821358D01*
X693830Y513140D02*
X821358D01*
X645608Y512574D02*
X821358D01*
X645447Y512007D02*
X821358D01*
X645605Y511440D02*
X821358D01*
X645634Y510873D02*
X821358D01*
X645538Y510306D02*
X821358D01*
X680406Y509739D02*
X821358D01*
X681273Y509172D02*
X821358D01*
X681710Y508605D02*
X821358D01*
X681952Y508038D02*
X821358D01*
X682053Y507471D02*
X821358D01*
X682029Y506904D02*
X821358D01*
X681877Y506337D02*
X821358D01*
X704588Y505770D02*
X821358D01*
X705256Y505203D02*
X821358D01*
X705621Y504637D02*
X821358D01*
X705814Y504070D02*
X821358D01*
X705875Y503503D02*
X821358D01*
X706855Y502936D02*
X821358D01*
X708347Y502369D02*
X821358D01*
X708877Y501802D02*
X821358D01*
X709173Y501235D02*
X821358D01*
X709317Y500668D02*
X821358D01*
X709333Y500101D02*
X821358D01*
X709225Y499534D02*
X821358D01*
X708973Y498967D02*
X821358D01*
X708521Y498400D02*
X821358D01*
X707599Y497833D02*
X821358D01*
X692995Y497266D02*
X821358D01*
X692428Y496699D02*
X821358D01*
X815694Y590810D02*
X821328D01*
X691861Y496133D02*
X821298D01*
X757205Y539786D02*
X821089D01*
X691295Y495566D02*
X820979D01*
X687893Y492164D02*
X820804D01*
X815127Y590243D02*
X820761D01*
X690728Y494999D02*
X820572D01*
X757205Y540353D02*
X820522D01*
X688460Y492731D02*
X820474D01*
X690161Y494432D02*
X820350D01*
X689027Y493298D02*
X820304D01*
X689594Y493865D02*
X820265D01*
X814560Y589676D02*
X820194D01*
X757205Y540920D02*
X819956D01*
X813993Y589109D02*
X819628D01*
X757205Y541487D02*
X819389D01*
X813426Y588542D02*
X819061D01*
X757205Y542054D02*
X818822D01*
X812859Y587975D02*
X818494D01*
X757205Y542621D02*
X818255D01*
X812292Y587408D02*
X817927D01*
X757205Y543188D02*
X817688D01*
X812084Y576637D02*
X817536D01*
X811725Y586841D02*
X817360D01*
X809522Y618022D02*
X817171D01*
X757205Y543755D02*
X817121D01*
X812084Y576070D02*
X817001D01*
X811158Y586274D02*
X816793D01*
X812084Y575503D02*
X816702D01*
X793993Y597613D02*
X816692D01*
X812084Y574936D02*
X816556D01*
X757205Y544322D02*
X816554D01*
X812084Y574369D02*
X816529D01*
X810591Y585707D02*
X816226D01*
X812084Y573802D02*
X816223D01*
X793426Y597046D02*
X816060D01*
X757205Y544888D02*
X815987D01*
X810718Y618589D02*
X815975D01*
X810785Y625959D02*
X815907D01*
X810874Y625392D02*
X815818D01*
X792860Y596479D02*
X815712D01*
X810024Y585140D02*
X815659D01*
X812084Y573235D02*
X815657D01*
X792293Y595912D02*
X815531D01*
X791726Y595345D02*
X815480D01*
X757205Y545455D02*
X815420D01*
X811383Y619156D02*
X815310D01*
X791159Y594778D02*
X815266D01*
X811487Y624825D02*
X815206D01*
X809457Y584574D02*
X815092D01*
X812084Y572668D02*
X815090D01*
X811836Y619723D02*
X814857D01*
X757205Y546022D02*
X814853D01*
X811909Y624259D02*
X814784D01*
X790592Y594211D02*
X814752D01*
X812153Y620290D02*
X814539D01*
X808890Y584007D02*
X814525D01*
X812084Y572101D02*
X814523D01*
X812203Y623692D02*
X814489D01*
X812367Y620857D02*
X814326D01*
X812399Y623125D02*
X814294D01*
X757205Y546589D02*
X814286D01*
X812493Y621424D02*
X814200D01*
X790025Y593644D02*
X814185D01*
X812508Y622558D02*
X814185D01*
X812539Y621991D02*
X814154D01*
X808323Y583440D02*
X813958D01*
X812084Y571534D02*
X813956D01*
X757205Y547156D02*
X813719D01*
X789458Y593077D02*
X813618D01*
X807757Y582873D02*
X813391D01*
X812084Y570967D02*
X813389D01*
X757205Y547723D02*
X813152D01*
X788891Y592511D02*
X813051D01*
X807575Y582306D02*
X812824D01*
X812084Y570400D02*
X812822D01*
X757205Y548290D02*
X812585D01*
X788324Y591944D02*
X812484D01*
X807575Y581739D02*
X812257D01*
X757205Y548857D02*
X812019D01*
X787521Y591377D02*
X811918D01*
X807575Y581172D02*
X811691D01*
X757205Y549424D02*
X811452D01*
X778210Y590810D02*
X811351D01*
X807575Y580605D02*
X811124D01*
X757205Y549991D02*
X810885D01*
X777643Y590243D02*
X810784D01*
X807575Y580038D02*
X810557D01*
X757205Y550558D02*
X810318D01*
X777076Y589676D02*
X810217D01*
X807575Y579471D02*
X809990D01*
X793571Y551125D02*
X809751D01*
X776509Y589109D02*
X809650D01*
X807575Y578904D02*
X809424D01*
X807480Y551692D02*
X809242D01*
X807575Y578337D02*
X809089D01*
X775942Y588542D02*
X809083D01*
X808101Y552259D02*
X809032D01*
X807575Y577770D02*
X809013D01*
X807575Y577203D02*
X809013D01*
X807575Y576637D02*
X809013D01*
X807575Y576070D02*
X809013D01*
X807575Y575503D02*
X809013D01*
X807575Y574936D02*
X809013D01*
X807575Y574369D02*
X809013D01*
X807575Y573802D02*
X809013D01*
X807575Y573235D02*
X809013D01*
X807575Y572668D02*
X809013D01*
X807575Y572101D02*
X809013D01*
X807575Y571534D02*
X809013D01*
X807575Y570967D02*
X809013D01*
X807575Y570400D02*
X809013D01*
X807575Y569833D02*
X809013D01*
X807575Y569266D02*
X809013D01*
X807575Y568699D02*
X809013D01*
X807575Y568133D02*
X809013D01*
X807575Y567566D02*
X809013D01*
X807575Y566999D02*
X809013D01*
X807575Y566432D02*
X808975D01*
X808456Y552825D02*
X808939D01*
X807575Y565865D02*
X808711D01*
X779283Y587975D02*
X808516D01*
X807575Y565298D02*
X808270D01*
X784055Y587408D02*
X807949D01*
X784747Y586841D02*
X807382D01*
X801220Y618022D02*
X807171D01*
X785122Y586274D02*
X806815D01*
X785323Y585707D02*
X806248D01*
X801400Y618589D02*
X805975D01*
X800785Y625959D02*
X805907D01*
X800874Y625392D02*
X805818D01*
X785389Y585140D02*
X805681D01*
X801580Y619156D02*
X805310D01*
X801487Y624825D02*
X805206D01*
X785332Y584574D02*
X805114D01*
X801836Y619723D02*
X804857D01*
X801909Y624259D02*
X804784D01*
X785142Y584007D02*
X804663D01*
X794292Y551692D02*
X804600D01*
X802153Y620290D02*
X804539D01*
X784783Y583440D02*
X804509D01*
X784323Y582873D02*
X804505D01*
X784323Y582306D02*
X804505D01*
X784323Y581739D02*
X804505D01*
X784323Y581172D02*
X804505D01*
X784323Y580605D02*
X804505D01*
X784323Y580038D02*
X804505D01*
X784323Y579471D02*
X804505D01*
X784323Y578904D02*
X804505D01*
X784323Y578337D02*
X804505D01*
X784323Y577770D02*
X804505D01*
X784323Y577203D02*
X804505D01*
X784323Y576637D02*
X804505D01*
X784323Y576070D02*
X804505D01*
X784323Y575503D02*
X804505D01*
X784323Y574936D02*
X804505D01*
X784323Y574369D02*
X804505D01*
X784399Y573802D02*
X804505D01*
X784910Y573235D02*
X804505D01*
X785200Y572668D02*
X804505D01*
X785338Y572101D02*
X804505D01*
X785350Y571534D02*
X804505D01*
X785237Y570967D02*
X804505D01*
X784979Y570400D02*
X804505D01*
X784517Y569833D02*
X804505D01*
X783557Y569266D02*
X804505D01*
X757205Y568699D02*
X804505D01*
X757205Y568133D02*
X804505D01*
X757205Y567566D02*
X804505D01*
X757205Y566999D02*
X804505D01*
X757205Y566432D02*
X804505D01*
X757205Y565865D02*
X804505D01*
X757205Y565298D02*
X804505D01*
X757205Y564731D02*
X804505D01*
X757205Y564164D02*
X804505D01*
X757205Y563597D02*
X804505D01*
X757205Y563030D02*
X804505D01*
X757205Y562463D02*
X804505D01*
X757205Y561896D02*
X804505D01*
X757205Y561329D02*
X804505D01*
X757205Y560762D02*
X804505D01*
X757205Y560196D02*
X804505D01*
X757205Y559629D02*
X804505D01*
X757205Y559062D02*
X804505D01*
X757205Y558495D02*
X804505D01*
X757205Y557928D02*
X804505D01*
X757205Y557361D02*
X804505D01*
X757205Y556794D02*
X804505D01*
X802203Y623692D02*
X804489D01*
X757231Y556227D02*
X804434D01*
X802367Y620857D02*
X804326D01*
X802399Y623125D02*
X804294D01*
X802493Y621424D02*
X804200D01*
X802508Y622558D02*
X804185D01*
X802539Y621991D02*
X804154D01*
X793746Y555660D02*
X804092D01*
X794678Y552259D02*
X803979D01*
X794379Y555093D02*
X803699D01*
X794886Y552825D02*
X803636D01*
X794727Y554526D02*
X803487D01*
X794960Y553392D02*
X803458D01*
X794909Y553959D02*
X803410D01*
X737354Y615188D02*
X796260D01*
X737283Y614621D02*
X796260D01*
X737283Y614054D02*
X796260D01*
X737283Y613487D02*
X796260D01*
X737283Y612920D02*
X796260D01*
X737283Y612353D02*
X796260D01*
X737283Y611786D02*
X796260D01*
X737283Y611219D02*
X796260D01*
X737283Y610652D02*
X796260D01*
X737283Y610085D02*
X796260D01*
X737283Y609518D02*
X796260D01*
X737283Y608951D02*
X796260D01*
X737283Y608385D02*
X796260D01*
X737283Y607818D02*
X796260D01*
X737283Y607251D02*
X796260D01*
X737283Y606684D02*
X796260D01*
X737283Y606117D02*
X796260D01*
X737606Y615755D02*
X796193D01*
X737283Y605550D02*
X796029D01*
X737859Y616322D02*
X796013D01*
X790785Y625959D02*
X795907D01*
X738111Y616888D02*
X795833D01*
X790874Y625392D02*
X795818D01*
X738363Y617455D02*
X795653D01*
X789522Y618022D02*
X795473D01*
X737283Y604983D02*
X795462D01*
X790718Y618589D02*
X795293D01*
X791487Y624825D02*
X795206D01*
X791383Y619156D02*
X795113D01*
X737283Y604416D02*
X794895D01*
X791836Y619723D02*
X794857D01*
X791909Y624259D02*
X794784D01*
X792153Y620290D02*
X794539D01*
X792203Y623692D02*
X794489D01*
X737283Y603849D02*
X794328D01*
X792367Y620857D02*
X794326D01*
X792399Y623125D02*
X794294D01*
X792493Y621424D02*
X794200D01*
X792508Y622558D02*
X794185D01*
X792539Y621991D02*
X794154D01*
X737283Y603282D02*
X793761D01*
X737283Y602715D02*
X793194D01*
X737283Y602148D02*
X792627D01*
X782899Y601581D02*
X792060D01*
X783686Y601014D02*
X791493D01*
X757544Y551125D02*
X791088D01*
X784097Y600448D02*
X790926D01*
X757767Y555660D02*
X790913D01*
X784322Y599881D02*
X790359D01*
X784409Y599314D02*
X789792D01*
X784372Y598747D02*
X789225D01*
X784205Y598180D02*
X788658D01*
X783878Y597613D02*
X788092D01*
X783289Y597046D02*
X787525D01*
X782022Y618022D02*
X787171D01*
X779213Y596479D02*
X786958D01*
X778648Y595912D02*
X786391D01*
X782476Y618589D02*
X785975D01*
X782544Y625959D02*
X785907D01*
X782510Y625392D02*
X785818D01*
X782539Y619156D02*
X785310D01*
X782539Y624825D02*
X785206D01*
X782539Y619723D02*
X784857D01*
X782539Y624259D02*
X784784D01*
X782539Y620290D02*
X784539D01*
X782539Y623692D02*
X784489D01*
X782539Y620857D02*
X784326D01*
X782539Y623125D02*
X784294D01*
X782539Y621424D02*
X784200D01*
X782539Y622558D02*
X784185D01*
X782539Y621991D02*
X784154D01*
X757343Y569266D02*
X781903D01*
X780420Y587408D02*
X781463D01*
X757612Y569833D02*
X780943D01*
X737283Y601581D02*
X780662D01*
X757801Y570400D02*
X780480D01*
X779780Y597046D02*
X780272D01*
X758367Y570967D02*
X780223D01*
X758934Y571534D02*
X780109D01*
X778869Y572101D02*
X780099D01*
X776822Y601014D02*
X779876D01*
X777416Y600448D02*
X778867D01*
X759501Y572101D02*
X778384D01*
X777754Y599881D02*
X778272D01*
X775375Y587975D02*
X778141D01*
X769706Y582306D02*
X777177D01*
X769139Y581739D02*
X777177D01*
X768572Y581172D02*
X777177D01*
X768005Y580605D02*
X777177D01*
X767438Y580038D02*
X777177D01*
X766871Y579471D02*
X777177D01*
X766304Y578904D02*
X777177D01*
X765738Y578337D02*
X777177D01*
X765171Y577770D02*
X777177D01*
X764604Y577203D02*
X777177D01*
X770273Y582873D02*
X777164D01*
X774808Y587408D02*
X777004D01*
X760068Y572668D02*
X776981D01*
X770840Y583440D02*
X776965D01*
X764037Y576637D02*
X776825D01*
X774241Y586841D02*
X776507D01*
X771407Y584007D02*
X776486D01*
X760635Y573235D02*
X776456D01*
X763470Y576070D02*
X776369D01*
X773675Y586274D02*
X776229D01*
X771974Y584574D02*
X776217D01*
X761202Y573802D02*
X776162D01*
X762903Y575503D02*
X776115D01*
X773108Y585707D02*
X776099D01*
X772541Y585140D02*
X776095D01*
X761769Y574369D02*
X776020D01*
X762336Y574936D02*
X776005D01*
X769963Y618022D02*
X774671D01*
X770191Y618589D02*
X774217D01*
X770197Y625392D02*
X774183D01*
X770197Y624825D02*
X774154D01*
X770197Y624259D02*
X774154D01*
X770197Y623692D02*
X774154D01*
X770197Y623125D02*
X774154D01*
X770197Y622558D02*
X774154D01*
X770197Y621991D02*
X774154D01*
X770197Y621424D02*
X774154D01*
X770197Y620857D02*
X774154D01*
X770197Y620290D02*
X774154D01*
X770197Y619723D02*
X774154D01*
X770197Y619156D02*
X774154D01*
X770286Y625959D02*
X774149D01*
X737283Y601014D02*
X773830D01*
X737283Y600448D02*
X773235D01*
X737283Y599881D02*
X772905D01*
X737283Y599314D02*
X772736D01*
X737283Y598747D02*
X772698D01*
X737283Y598180D02*
X772453D01*
X737283Y597613D02*
X771916D01*
X737283Y597046D02*
X771349D01*
X737291Y596479D02*
X770782D01*
X737790Y595912D02*
X770215D01*
X738357Y595345D02*
X769648D01*
X738924Y594778D02*
X769082D01*
X739491Y594211D02*
X768515D01*
X740058Y593644D02*
X767948D01*
X750302Y593077D02*
X767381D01*
X751092Y592511D02*
X766814D01*
X751504Y591944D02*
X766247D01*
X751730Y591377D02*
X765680D01*
X751818Y590810D02*
X765113D01*
X751781Y590243D02*
X764546D01*
X752586Y589676D02*
X763979D01*
X753531Y589109D02*
X763412D01*
X753989Y588542D02*
X762845D01*
X754245Y587975D02*
X762278D01*
X754356Y587408D02*
X761711D01*
X757643Y618022D02*
X761533D01*
X758547Y618589D02*
X761305D01*
X758681Y625392D02*
X761299D01*
X759223Y624825D02*
X761299D01*
X759608Y624259D02*
X761299D01*
X759882Y623692D02*
X761299D01*
X760064Y623125D02*
X761299D01*
X760167Y622558D02*
X761299D01*
X760197Y621991D02*
X761299D01*
X760153Y621424D02*
X761299D01*
X760035Y620857D02*
X761299D01*
X759835Y620290D02*
X761299D01*
X759542Y619723D02*
X761299D01*
X759129Y619156D02*
X761299D01*
X758605Y625959D02*
X761210D01*
X754343Y586841D02*
X761145D01*
X754202Y586274D02*
X760578D01*
X753910Y585707D02*
X760011D01*
X753387Y585140D02*
X759444D01*
X752033Y584574D02*
X758877D01*
X750673Y584007D02*
X758310D01*
X750106Y583440D02*
X757743D01*
X749438Y582873D02*
X757176D01*
X573740Y582306D02*
X756609D01*
X573740Y581739D02*
X756042D01*
X573740Y581172D02*
X755475D01*
X573740Y580605D02*
X754908D01*
X573740Y580038D02*
X754341D01*
X747643Y618022D02*
X753853D01*
X573740Y579471D02*
X753774D01*
X573740Y578904D02*
X753208D01*
X748547Y618589D02*
X752949D01*
X748605Y625959D02*
X752891D01*
X748681Y625392D02*
X752815D01*
X573740Y578337D02*
X752641D01*
X749129Y619156D02*
X752367D01*
X749223Y624825D02*
X752273D01*
X573740Y577770D02*
X752074D01*
X749542Y619723D02*
X751955D01*
X749608Y624259D02*
X751888D01*
X749835Y620290D02*
X751661D01*
X749882Y623692D02*
X751614D01*
X573740Y577203D02*
X751507D01*
X750035Y620857D02*
X751461D01*
X751319Y584574D02*
X751437D01*
X750064Y623125D02*
X751432D01*
X750153Y621424D02*
X751343D01*
X750167Y622558D02*
X751329D01*
X750197Y621991D02*
X751300D01*
X573740Y576637D02*
X750940D01*
X573740Y576070D02*
X750373D01*
X573740Y575503D02*
X749806D01*
X573740Y574936D02*
X749239D01*
X573740Y574369D02*
X748672D01*
X573740Y573802D02*
X748105D01*
X740625Y593077D02*
X748078D01*
X573740Y573235D02*
X747538D01*
X741192Y592511D02*
X747288D01*
X573740Y572668D02*
X746971D01*
X573740Y572101D02*
X746404D01*
X573740Y571534D02*
X745837D01*
X573740Y570967D02*
X745270D01*
X573740Y570400D02*
X744704D01*
X573740Y569833D02*
X744137D01*
X738615Y618022D02*
X743853D01*
X573740Y569266D02*
X743570D01*
X573740Y568699D02*
X743003D01*
X738867Y618589D02*
X742949D01*
X738605Y625959D02*
X742891D01*
X738681Y625392D02*
X742815D01*
X573740Y568133D02*
X742436D01*
X739130Y619156D02*
X742367D01*
X739223Y624825D02*
X742273D01*
X739542Y619723D02*
X741955D01*
X739608Y624259D02*
X741888D01*
X573740Y567566D02*
X741869D01*
X739835Y620290D02*
X741661D01*
X739882Y623692D02*
X741614D01*
X740035Y620857D02*
X741461D01*
X740064Y623125D02*
X741432D01*
X740153Y621424D02*
X741343D01*
X740167Y622558D02*
X741329D01*
X573740Y566999D02*
X741302D01*
X740197Y621991D02*
X741300D01*
X573740Y566432D02*
X740735D01*
X737929Y532416D02*
X740606D01*
X573740Y565865D02*
X740168D01*
X737929Y532983D02*
X739963D01*
X737929Y533550D02*
X739610D01*
X573740Y565298D02*
X739601D01*
X737929Y534117D02*
X739424D01*
X737929Y534684D02*
X739371D01*
X573740Y564731D02*
X739034D01*
X413717Y422999D02*
X738856D01*
X737973Y535251D02*
X738742D01*
X573740Y564164D02*
X738467D01*
X573740Y563597D02*
X737900D01*
X413717Y446810D02*
X737839D01*
X573740Y563030D02*
X737333D01*
X730258Y586274D02*
X736861D01*
X573740Y562463D02*
X736767D01*
X413717Y423566D02*
X736554D01*
X730093Y586841D02*
X736223D01*
X573740Y561896D02*
X736200D01*
X413717Y446243D02*
X736048D01*
X729768Y587408D02*
X735656D01*
X573740Y561329D02*
X735633D01*
X413717Y424133D02*
X735211D01*
X573740Y560762D02*
X735111D01*
X729184Y587975D02*
X735089D01*
X631354Y525046D02*
X735031D01*
X573740Y560196D02*
X734884D01*
X573740Y559629D02*
X734858D01*
X573740Y559062D02*
X734858D01*
X573740Y558495D02*
X734858D01*
X573740Y557928D02*
X734858D01*
X573740Y557361D02*
X734858D01*
X573740Y556794D02*
X734858D01*
X573740Y556227D02*
X734858D01*
X573740Y555660D02*
X734858D01*
X573740Y555093D02*
X734858D01*
X573740Y554526D02*
X734858D01*
X573740Y553959D02*
X734858D01*
X573740Y553392D02*
X734858D01*
X573740Y552825D02*
X734858D01*
X573740Y552259D02*
X734858D01*
X573740Y551692D02*
X734858D01*
X573740Y551125D02*
X734858D01*
X573740Y550558D02*
X734858D01*
X573740Y549991D02*
X734858D01*
X573740Y549424D02*
X734858D01*
X573740Y548857D02*
X734858D01*
X573740Y548290D02*
X734858D01*
X573740Y547723D02*
X734858D01*
X573740Y547156D02*
X734858D01*
X573740Y546589D02*
X734858D01*
X574179Y546022D02*
X734858D01*
X574746Y545455D02*
X734858D01*
X575313Y544888D02*
X734858D01*
X575880Y544322D02*
X734858D01*
X576447Y543755D02*
X734858D01*
X577014Y543188D02*
X734858D01*
X577580Y542621D02*
X734858D01*
X636461Y542054D02*
X734858D01*
X637377Y541487D02*
X734858D01*
X637853Y540920D02*
X734858D01*
X638134Y540353D02*
X734858D01*
X638277Y539786D02*
X734858D01*
X638303Y539219D02*
X734858D01*
X638216Y538652D02*
X734858D01*
X638004Y538085D02*
X734858D01*
X637863Y537518D02*
X734858D01*
X637753Y536951D02*
X734858D01*
X637642Y536385D02*
X734858D01*
X637532Y535818D02*
X734858D01*
X637520Y535251D02*
X734858D01*
X637521Y534684D02*
X734858D01*
X637817Y534117D02*
X734858D01*
X638006Y533550D02*
X734858D01*
X638063Y532983D02*
X734858D01*
X637997Y532416D02*
X734858D01*
X637796Y531849D02*
X734858D01*
X637421Y531282D02*
X734858D01*
X636728Y530715D02*
X734858D01*
X626252Y530148D02*
X734858D01*
X413717Y445676D02*
X734840D01*
X626819Y529581D02*
X734774D01*
X699367Y588542D02*
X734522D01*
X627386Y529014D02*
X734403D01*
X630787Y525613D02*
X734373D01*
X733588Y595345D02*
X734245D01*
X729464Y614621D02*
X734213D01*
X729464Y614054D02*
X734213D01*
X729464Y613487D02*
X734213D01*
X729464Y612920D02*
X734213D01*
X729464Y612353D02*
X734213D01*
X729464Y611786D02*
X734213D01*
X729464Y611219D02*
X734213D01*
X729464Y610652D02*
X734213D01*
X729464Y610085D02*
X734213D01*
X729464Y609518D02*
X734213D01*
X729464Y608951D02*
X734213D01*
X729464Y608385D02*
X734213D01*
X729464Y607818D02*
X734213D01*
X729464Y607251D02*
X734213D01*
X729464Y606684D02*
X734213D01*
X729464Y606117D02*
X734213D01*
X729464Y605550D02*
X734213D01*
X729464Y604983D02*
X734213D01*
X729464Y604416D02*
X734213D01*
X729464Y603849D02*
X734213D01*
X729464Y603282D02*
X734213D01*
X729464Y602715D02*
X734213D01*
X729464Y602148D02*
X734213D01*
X729464Y601581D02*
X734213D01*
X729464Y601014D02*
X734213D01*
X470644Y600448D02*
X734213D01*
X471369Y599881D02*
X734213D01*
X471974Y599314D02*
X734213D01*
X472488Y598747D02*
X734213D01*
X472928Y598180D02*
X734213D01*
X473306Y597613D02*
X734213D01*
X473631Y597046D02*
X734213D01*
X699161Y596479D02*
X734213D01*
X732959Y595912D02*
X734213D01*
X413717Y424699D02*
X734192D01*
X729464Y615188D02*
X734142D01*
X627953Y528448D02*
X734029D01*
X630220Y526180D02*
X734012D01*
X474163Y589109D02*
X733955D01*
X413717Y445109D02*
X733894D01*
X729464Y615755D02*
X733890D01*
X628519Y527881D02*
X733829D01*
X629653Y526747D02*
X733822D01*
X629086Y527314D02*
X733764D01*
X729464Y616322D02*
X733638D01*
X474352Y589676D02*
X733389D01*
X729464Y616888D02*
X733385D01*
X465767Y425266D02*
X733359D01*
X729464Y617455D02*
X733133D01*
X467069Y444542D02*
X733108D01*
X729588Y625959D02*
X732891D01*
X729464Y618022D02*
X732881D01*
X474504Y590243D02*
X732822D01*
X729464Y625392D02*
X732815D01*
X468362Y425833D02*
X732653D01*
X729464Y618589D02*
X732629D01*
X468845Y443975D02*
X732437D01*
X729464Y619156D02*
X732366D01*
X729464Y624825D02*
X732273D01*
X474620Y590810D02*
X732240D01*
X469623Y426400D02*
X732042D01*
X729464Y619723D02*
X731955D01*
X729464Y624259D02*
X731888D01*
X469963Y443408D02*
X731853D01*
X729464Y620290D02*
X731661D01*
X729464Y623692D02*
X731614D01*
X470550Y426967D02*
X731507D01*
X729464Y620857D02*
X731461D01*
X729464Y623125D02*
X731432D01*
X729464Y621424D02*
X731343D01*
X470818Y442841D02*
X731341D01*
X729464Y622558D02*
X731329D01*
X729464Y621991D02*
X731300D01*
X471292Y427534D02*
X731035D01*
X471513Y442274D02*
X730889D01*
X471909Y428101D02*
X730618D01*
X472095Y441707D02*
X730489D01*
X709208Y591377D02*
X730303D01*
X472432Y428668D02*
X730249D01*
X472591Y441140D02*
X730134D01*
X709400Y595912D02*
X730111D01*
X472880Y429235D02*
X729923D01*
X473017Y440574D02*
X729821D01*
X473265Y429802D02*
X729635D01*
X709933Y591944D02*
X729578D01*
X473383Y440007D02*
X729546D01*
X710029Y595345D02*
X729482D01*
X473596Y430369D02*
X729384D01*
X473696Y439440D02*
X729307D01*
X710321Y592511D02*
X729189D01*
X473878Y430936D02*
X729166D01*
X710375Y594778D02*
X729136D01*
X473963Y438873D02*
X729100D01*
X474116Y431503D02*
X728980D01*
X710531Y593077D02*
X728980D01*
X710556Y594211D02*
X728955D01*
X474187Y438306D02*
X728924D01*
X710606Y593644D02*
X728905D01*
X474314Y432070D02*
X728824D01*
X474372Y437739D02*
X728778D01*
X474473Y432637D02*
X728697D01*
X474519Y437172D02*
X728661D01*
X474597Y433203D02*
X728598D01*
X474631Y436605D02*
X728571D01*
X573740Y582873D02*
X728550D01*
X474686Y433770D02*
X728527D01*
X474708Y436038D02*
X728509D01*
X474741Y434337D02*
X728483D01*
X474752Y435471D02*
X728474D01*
X474763Y434904D02*
X728465D01*
X709094Y583440D02*
X726561D01*
X709507Y587975D02*
X726148D01*
X709888Y584007D02*
X725767D01*
X710091Y587408D02*
X725564D01*
X710302Y584574D02*
X725354D01*
X710416Y586841D02*
X725239D01*
X710528Y585140D02*
X725127D01*
X710581Y586274D02*
X725074D01*
X710617Y585707D02*
X725038D01*
X700026Y583440D02*
X706884D01*
X700116Y591377D02*
X706744D01*
X706011Y502936D02*
X706567D01*
X700385Y595912D02*
X706552D01*
X700558Y587975D02*
X706471D01*
X701458Y584007D02*
X706090D01*
X701631Y591944D02*
X706018D01*
X693562Y497833D02*
X705823D01*
X701941Y595345D02*
X705774D01*
X702114Y587408D02*
X705569D01*
X694129Y498400D02*
X704902D01*
X681570Y505770D02*
X701901D01*
X681381Y505203D02*
X701199D01*
X473907Y596479D02*
X697689D01*
X573047Y588542D02*
X697483D01*
X573740Y583440D02*
X696825D01*
X474701Y591377D02*
X696734D01*
X474141Y595912D02*
X696589D01*
X573691Y587975D02*
X696516D01*
X573740Y584007D02*
X696201D01*
X474749Y591944D02*
X696151D01*
X474334Y595345D02*
X696068D01*
X574044Y587408D02*
X696025D01*
X573740Y584574D02*
X695839D01*
X474764Y592511D02*
X695809D01*
X474490Y594778D02*
X695761D01*
X574230Y586841D02*
X695736D01*
X574009Y585140D02*
X695634D01*
X474746Y593077D02*
X695620D01*
X474609Y594211D02*
X695597D01*
X574284Y586274D02*
X695586D01*
X574214Y585707D02*
X695554D01*
X474694Y593644D02*
X695552D01*
X694480Y513707D02*
X694583D01*
X643765Y518810D02*
X694139D01*
X643856Y518243D02*
X693175D01*
X629352Y501802D02*
X693004D01*
X628711Y501235D02*
X692732D01*
X643824Y517676D02*
X692711D01*
X643662Y517109D02*
X692453D01*
X643341Y516542D02*
X692339D01*
X642935Y515975D02*
X692300D01*
X413717Y500668D02*
X692165D01*
X413717Y500101D02*
X691598D01*
X413717Y499534D02*
X691031D01*
X413717Y498967D02*
X690465D01*
X413717Y498400D02*
X689898D01*
X413717Y497833D02*
X689331D01*
X413717Y497266D02*
X688764D01*
X413717Y496699D02*
X688197D01*
X413717Y496133D02*
X687630D01*
X413717Y495566D02*
X687063D01*
X413717Y494999D02*
X686496D01*
X413717Y494432D02*
X685929D01*
X413717Y493865D02*
X685362D01*
X413717Y493298D02*
X684795D01*
X413717Y492731D02*
X684228D01*
X413717Y492164D02*
X683661D01*
X413717Y491597D02*
X683094D01*
X413717Y491030D02*
X682528D01*
X413717Y490463D02*
X681961D01*
X413717Y489896D02*
X681394D01*
X413717Y489329D02*
X680613D01*
X413717Y484227D02*
X679341D01*
X413717Y488762D02*
X678687D01*
X413717Y484794D02*
X678458D01*
X645303Y509739D02*
X678450D01*
X413717Y488196D02*
X678143D01*
X413717Y485361D02*
X678016D01*
X413717Y487629D02*
X677839D01*
X413717Y485928D02*
X677772D01*
X413717Y487062D02*
X677690D01*
X413717Y486495D02*
X677668D01*
X644964Y509172D02*
X677583D01*
X635890Y520511D02*
X640154D01*
X578147Y542054D02*
X634405D01*
X625685Y530715D02*
X634138D01*
X578714Y541487D02*
X633489D01*
X625118Y531282D02*
X633445D01*
X621149Y535251D02*
X633346D01*
X621716Y534684D02*
X633345D01*
X620582Y535818D02*
X633334D01*
X620016Y536385D02*
X633224D01*
X619435Y536951D02*
X633113D01*
X624551Y531849D02*
X633070D01*
X622283Y534117D02*
X633049D01*
X579281Y540920D02*
X633013D01*
X582683Y537518D02*
X633003D01*
X623984Y532416D02*
X632869D01*
X582116Y538085D02*
X632862D01*
X622850Y533550D02*
X632860D01*
X623417Y532983D02*
X632803D01*
X579848Y540353D02*
X632732D01*
X581549Y538652D02*
X632650D01*
X580415Y539786D02*
X632589D01*
X580982Y539219D02*
X632563D01*
X413717Y513707D02*
X632389D01*
X413717Y514274D02*
X632087D01*
X413717Y514841D02*
X631520D01*
X413717Y515408D02*
X630953D01*
X413717Y515975D02*
X630386D01*
X413717Y516542D02*
X629819D01*
X413717Y513140D02*
X629610D01*
X413717Y517109D02*
X629252D01*
X413717Y512574D02*
X629047D01*
X413717Y512007D02*
X628732D01*
X413717Y517676D02*
X628685D01*
X413717Y510306D02*
X628641D01*
X413717Y511440D02*
X628575D01*
X413717Y510873D02*
X628546D01*
X413717Y518243D02*
X628118D01*
X413717Y518810D02*
X627551D01*
X413717Y519377D02*
X626984D01*
X413717Y509739D02*
X626898D01*
X413717Y519944D02*
X626417D01*
X413717Y509172D02*
X626068D01*
X413717Y501235D02*
X625913D01*
X413717Y520511D02*
X625850D01*
X413717Y505770D02*
X625765D01*
X413717Y508605D02*
X625642D01*
X413717Y506337D02*
X625500D01*
X413717Y508038D02*
X625407D01*
X413717Y506904D02*
X625342D01*
X413717Y505203D02*
X625340D01*
X413717Y507471D02*
X625312D01*
X413717Y521077D02*
X625283D01*
X413717Y501802D02*
X625272D01*
X413717Y504637D02*
X624958D01*
X413717Y502369D02*
X624920D01*
X413717Y504070D02*
X624753D01*
X413717Y502936D02*
X624735D01*
X413717Y521644D02*
X624716D01*
X413717Y503503D02*
X624682D01*
X413717Y522211D02*
X624150D01*
X413717Y522778D02*
X623583D01*
X413717Y523345D02*
X623016D01*
X413717Y523912D02*
X622449D01*
X413717Y524479D02*
X621882D01*
X413717Y525046D02*
X621315D01*
X413717Y525613D02*
X620748D01*
X413717Y526180D02*
X620181D01*
X413717Y526747D02*
X619614D01*
X413717Y527314D02*
X619047D01*
X413717Y527881D02*
X618480D01*
X413717Y528448D02*
X617913D01*
X413717Y529014D02*
X617346D01*
X413717Y529581D02*
X616779D01*
X413717Y530148D02*
X616212D01*
X482451Y530715D02*
X615646D01*
X483161Y531282D02*
X615079D01*
X428622Y625392D02*
X598132D01*
X428368Y624825D02*
X598132D01*
X428101Y624259D02*
X598132D01*
X427822Y623692D02*
X598132D01*
X427528Y623125D02*
X598132D01*
X427221Y622558D02*
X598132D01*
X426899Y621991D02*
X598132D01*
X426562Y621424D02*
X598132D01*
X426210Y620857D02*
X598132D01*
X425842Y620290D02*
X598132D01*
X425457Y619723D02*
X598132D01*
X425055Y619156D02*
X598132D01*
X424634Y618589D02*
X598132D01*
X424195Y618022D02*
X598132D01*
X423736Y617455D02*
X598132D01*
X423255Y616888D02*
X598132D01*
X422752Y616322D02*
X598132D01*
X436964Y615755D02*
X598132D01*
X438584Y615188D02*
X598132D01*
X439507Y614621D02*
X598132D01*
X440178Y614054D02*
X598132D01*
X440699Y613487D02*
X598132D01*
X441113Y612920D02*
X598132D01*
X441443Y612353D02*
X598132D01*
X441703Y611786D02*
X598132D01*
X441900Y611219D02*
X598132D01*
X442042Y610652D02*
X598132D01*
X442131Y610085D02*
X598132D01*
X442170Y609518D02*
X598132D01*
X442160Y608951D02*
X598132D01*
X442101Y608385D02*
X598132D01*
X441990Y607818D02*
X598132D01*
X441826Y607251D02*
X598132D01*
X441604Y606684D02*
X598132D01*
X441316Y606117D02*
X598132D01*
X440954Y605550D02*
X598132D01*
X440499Y604983D02*
X598132D01*
X439923Y604416D02*
X598132D01*
X439167Y603849D02*
X598132D01*
X438068Y603282D02*
X598132D01*
X413717Y602715D02*
X598132D01*
X466364Y602148D02*
X598132D01*
X468536Y601581D02*
X598132D01*
X469743Y601014D02*
X598132D01*
X428910Y625959D02*
X598007D01*
X483317Y534684D02*
X579238D01*
X482576Y535251D02*
X579049D01*
X413717Y535818D02*
X578482D01*
X413717Y536385D02*
X577915D01*
X413717Y536951D02*
X577348D01*
X413717Y537518D02*
X576781D01*
X413717Y538085D02*
X576214D01*
X413717Y538652D02*
X575647D01*
X413717Y539219D02*
X575080D01*
X413717Y539786D02*
X574513D01*
X413717Y540353D02*
X573946D01*
X413717Y540920D02*
X573379D01*
X413717Y541487D02*
X572812D01*
X413717Y542054D02*
X572246D01*
X413717Y542621D02*
X571679D01*
X413717Y543188D02*
X571112D01*
X413717Y543755D02*
X570545D01*
X473934Y588542D02*
X570260D01*
X413717Y544322D02*
X570002D01*
X413717Y544888D02*
X569691D01*
X473662Y587975D02*
X569616D01*
X413717Y545455D02*
X569572D01*
X526131Y584574D02*
X569567D01*
X525986Y584007D02*
X569567D01*
X525689Y583440D02*
X569567D01*
X525212Y582873D02*
X569567D01*
X525062Y582306D02*
X569567D01*
X525062Y581739D02*
X569567D01*
X525062Y581172D02*
X569567D01*
X525062Y580605D02*
X569567D01*
X525062Y580038D02*
X569567D01*
X525062Y579471D02*
X569567D01*
X525062Y578904D02*
X569567D01*
X525062Y578337D02*
X569567D01*
X525062Y577770D02*
X569567D01*
X525062Y577203D02*
X569567D01*
X525062Y576637D02*
X569567D01*
X525062Y576070D02*
X569567D01*
X525062Y575503D02*
X569567D01*
X525062Y574936D02*
X569567D01*
X525062Y574369D02*
X569567D01*
X525062Y573802D02*
X569567D01*
X525062Y573235D02*
X569567D01*
X525062Y572668D02*
X569567D01*
X525062Y572101D02*
X569567D01*
X525048Y571534D02*
X569567D01*
X524856Y570967D02*
X569567D01*
X524364Y570400D02*
X569567D01*
X523797Y569833D02*
X569567D01*
X523230Y569266D02*
X569567D01*
X522663Y568699D02*
X569567D01*
X522096Y568133D02*
X569567D01*
X521529Y567566D02*
X569567D01*
X520962Y566999D02*
X569567D01*
X520395Y566432D02*
X569567D01*
X519828Y565865D02*
X569567D01*
X519261Y565298D02*
X569567D01*
X518694Y564731D02*
X569567D01*
X518127Y564164D02*
X569567D01*
X517560Y563597D02*
X569567D01*
X516994Y563030D02*
X569567D01*
X516427Y562463D02*
X569567D01*
X515860Y561896D02*
X569567D01*
X515293Y561329D02*
X569567D01*
X514726Y560762D02*
X569567D01*
X514159Y560196D02*
X569567D01*
X513592Y559629D02*
X569567D01*
X513025Y559062D02*
X569567D01*
X512458Y558495D02*
X569567D01*
X511891Y557928D02*
X569567D01*
X511324Y557361D02*
X569567D01*
X510757Y556794D02*
X569567D01*
X510190Y556227D02*
X569567D01*
X509623Y555660D02*
X569567D01*
X509057Y555093D02*
X569567D01*
X508490Y554526D02*
X569567D01*
X507923Y553959D02*
X569567D01*
X507356Y553392D02*
X569567D01*
X506789Y552825D02*
X569567D01*
X506222Y552259D02*
X569567D01*
X505655Y551692D02*
X569567D01*
X461124Y551125D02*
X569567D01*
X460160Y550558D02*
X569567D01*
X413717Y549991D02*
X569567D01*
X413717Y549424D02*
X569567D01*
X413717Y548857D02*
X569567D01*
X413717Y548290D02*
X569567D01*
X413717Y547723D02*
X569567D01*
X413717Y547156D02*
X569567D01*
X413717Y546589D02*
X569567D01*
X413717Y546022D02*
X569567D01*
X526149Y585140D02*
X569298D01*
X524428Y587408D02*
X569263D01*
X526041Y585707D02*
X569094D01*
X525341Y586841D02*
X569077D01*
X525791Y586274D02*
X569023D01*
X473343Y587408D02*
X522625D01*
X519787Y586841D02*
X521711D01*
X520371Y586274D02*
X521261D01*
X472971Y586841D02*
X516752D01*
X413717Y581739D02*
X516734D01*
X413717Y581172D02*
X516734D01*
X413717Y580605D02*
X516734D01*
X413717Y580038D02*
X516734D01*
X413717Y579471D02*
X516734D01*
X413717Y578904D02*
X516734D01*
X413717Y578337D02*
X516734D01*
X413717Y577770D02*
X516734D01*
X413717Y577203D02*
X516734D01*
X413717Y576637D02*
X516734D01*
X413717Y576070D02*
X516734D01*
X413717Y575503D02*
X516734D01*
X413717Y574936D02*
X516734D01*
X413717Y574369D02*
X516734D01*
X413717Y573802D02*
X516734D01*
X413717Y573235D02*
X516734D01*
X413717Y572668D02*
X516734D01*
X413717Y572101D02*
X516734D01*
X413717Y571534D02*
X516734D01*
X413717Y570967D02*
X516734D01*
X413717Y582306D02*
X516679D01*
X413717Y570400D02*
X516588D01*
X466740Y582873D02*
X516371D01*
X472538Y586274D02*
X516167D01*
X413717Y569833D02*
X516021D01*
X468688Y583440D02*
X515957D01*
X472033Y585707D02*
X515843D01*
X469851Y584007D02*
X515730D01*
X471439Y585140D02*
X515677D01*
X470728Y584574D02*
X515642D01*
X413717Y569266D02*
X515454D01*
X413717Y568699D02*
X514887D01*
X413717Y568133D02*
X514320D01*
X413717Y567566D02*
X513753D01*
X413717Y566999D02*
X513186D01*
X413717Y566432D02*
X512619D01*
X413717Y565865D02*
X512052D01*
X413717Y565298D02*
X511485D01*
X413717Y564731D02*
X510918D01*
X413717Y564164D02*
X510352D01*
X413717Y563597D02*
X509785D01*
X413717Y563030D02*
X509218D01*
X413717Y562463D02*
X508651D01*
X413717Y561896D02*
X508084D01*
X439881Y561329D02*
X507517D01*
X440583Y560762D02*
X506950D01*
X440660Y557361D02*
X506632D01*
X439949Y556794D02*
X506414D01*
X413717Y556227D02*
X505847D01*
X413717Y555660D02*
X505281D01*
X459640Y555093D02*
X504714D01*
X460472Y554526D02*
X504147D01*
X413717Y530715D02*
X479915D01*
X413717Y535251D02*
X479789D01*
X413717Y531282D02*
X479208D01*
X413717Y534684D02*
X479146D01*
X413717Y531849D02*
X478827D01*
X413717Y534117D02*
X478792D01*
X413717Y532416D02*
X478623D01*
X413717Y533550D02*
X478606D01*
X413717Y532983D02*
X478553D01*
X413717Y425266D02*
X464233D01*
X413717Y602148D02*
X463636D01*
X413717Y582873D02*
X463260D01*
X413717Y444542D02*
X462931D01*
X413717Y425833D02*
X461638D01*
X413717Y601581D02*
X461464D01*
X413717Y583440D02*
X461312D01*
X413717Y443975D02*
X461156D01*
X413717Y426400D02*
X460377D01*
X413717Y601014D02*
X460257D01*
X413717Y584007D02*
X460149D01*
X413717Y443408D02*
X460037D01*
X413717Y426967D02*
X459450D01*
X413717Y600448D02*
X459356D01*
X413717Y584574D02*
X459272D01*
X413717Y442841D02*
X459182D01*
X413717Y427534D02*
X458708D01*
X413717Y599881D02*
X458631D01*
X413717Y585140D02*
X458561D01*
X413717Y442274D02*
X458487D01*
X413717Y428101D02*
X458091D01*
X413717Y599314D02*
X458026D01*
X413717Y585707D02*
X457967D01*
X413717Y441707D02*
X457905D01*
X413717Y428668D02*
X457568D01*
X413717Y555093D02*
X457563D01*
X413717Y598747D02*
X457512D01*
X413717Y586274D02*
X457462D01*
X413717Y441140D02*
X457409D01*
X413717Y429235D02*
X457120D01*
X413717Y598180D02*
X457072D01*
X413717Y550558D02*
X457043D01*
X413717Y586841D02*
X457029D01*
X413717Y440574D02*
X456983D01*
X413717Y429802D02*
X456735D01*
X413717Y554526D02*
X456732D01*
X413717Y597613D02*
X456694D01*
X413717Y587408D02*
X456657D01*
X413717Y440007D02*
X456618D01*
X413717Y551125D02*
X456478D01*
X413717Y430369D02*
X456404D01*
X413717Y597046D02*
X456369D01*
X413717Y587975D02*
X456338D01*
X413717Y553959D02*
X456305D01*
X413717Y439440D02*
X456304D01*
X413717Y551692D02*
X456163D01*
X413717Y430936D02*
X456122D01*
X413717Y596479D02*
X456093D01*
X413717Y553392D02*
X456071D01*
X413717Y588542D02*
X456066D01*
X413717Y438873D02*
X456037D01*
X413717Y552259D02*
X456005D01*
X413717Y552825D02*
X455975D01*
X413717Y431503D02*
X455884D01*
X413717Y595912D02*
X455859D01*
X413717Y589109D02*
X455837D01*
X413717Y438306D02*
X455813D01*
X413717Y432070D02*
X455686D01*
X436587Y595345D02*
X455666D01*
X436731Y589676D02*
X455648D01*
X413717Y437739D02*
X455628D01*
X413717Y432637D02*
X455527D01*
X437514Y594778D02*
X455510D01*
X437580Y590243D02*
X455496D01*
X413717Y437172D02*
X455481D01*
X413717Y433203D02*
X455403D01*
X438013Y594211D02*
X455391D01*
X438053Y590810D02*
X455380D01*
X413717Y436605D02*
X455369D01*
X413717Y433770D02*
X455314D01*
X438318Y593644D02*
X455306D01*
X438342Y591377D02*
X455299D01*
X413717Y436038D02*
X455292D01*
X413717Y434337D02*
X455259D01*
X438488Y593077D02*
X455254D01*
X438499Y591944D02*
X455251D01*
X413717Y435471D02*
X455248D01*
X413717Y434904D02*
X455237D01*
X438546Y592511D02*
X455236D01*
X413717Y561329D02*
X437284D01*
X413717Y556794D02*
X437217D01*
X413717Y560762D02*
X436593D01*
X413717Y557361D02*
X436560D01*
X413717Y560196D02*
X436219D01*
X413717Y557928D02*
X436200D01*
X413717Y559629D02*
X436019D01*
X413717Y558495D02*
X436010D01*
X413717Y559062D02*
X435952D01*
X413717Y595345D02*
X434358D01*
X422226Y615755D02*
X434301D01*
X413717Y589676D02*
X434214D01*
X413717Y594778D02*
X433431D01*
X413717Y590243D02*
X433365D01*
X413717Y603282D02*
X433197D01*
X413717Y594211D02*
X432932D01*
X413717Y590810D02*
X432892D01*
X421674Y615188D02*
X432681D01*
X413717Y593644D02*
X432627D01*
X413717Y591377D02*
X432603D01*
X413717Y593077D02*
X432457D01*
X413717Y591944D02*
X432446D01*
X413717Y592511D02*
X432399D01*
X413717Y603849D02*
X432098D01*
X421095Y614621D02*
X431759D01*
X413717Y604416D02*
X431342D01*
X420487Y614054D02*
X431087D01*
X413717Y604983D02*
X430766D01*
X419847Y613487D02*
X430566D01*
X413717Y605550D02*
X430311D01*
X419173Y612920D02*
X430152D01*
X413717Y606117D02*
X429949D01*
X418460Y612353D02*
X429822D01*
X413717Y606684D02*
X429662D01*
X417706Y611786D02*
X429563D01*
X413717Y607251D02*
X429439D01*
X416905Y611219D02*
X429365D01*
X413717Y607818D02*
X429275D01*
X416050Y610652D02*
X429223D01*
X413717Y608385D02*
X429165D01*
X415133Y610085D02*
X429134D01*
X413717Y608951D02*
X429105D01*
X414145Y609518D02*
X429095D01*
X737731Y589676D02*
X739668D01*
X737164Y590243D02*
X739117D01*
X736598Y590810D02*
X738550D01*
X736031Y591377D02*
X737983D01*
X735464Y591944D02*
X737416D01*
X734897Y592511D02*
X736849D01*
X734381Y593077D02*
X736282D01*
X734165Y593644D02*
X735715D01*
X734115Y594211D02*
X735148D01*
X734110Y594778D02*
X734587D01*
G54D172*
X630190Y507323D02*
X628467Y507852D01*
Y506794*
X630190Y507323*
X628467Y507480D02*
X629677D01*
X628740Y506878D02*
Y507768D01*
X629606Y507144D02*
Y507502D01*
X633534Y511024D02*
X631701Y511553D01*
Y510495*
X633534Y511024*
X631701Y510945D02*
X633261D01*
X632205Y510640D02*
Y511407D01*
X633071Y510890D02*
Y511157D01*
X640645Y511024D02*
X642479Y510495D01*
Y511553*
X640645Y511024*
X640918Y510945D02*
X642479D01*
X640866Y510960D02*
Y511087D01*
X641732Y510710D02*
Y511337D01*
X677066Y507297D02*
X678899Y506768D01*
Y507826*
X677066Y507297*
X677701Y507480D02*
X678899D01*
X677244Y507246D02*
Y507348D01*
X678110Y506996D02*
Y507598D01*
X483545Y533020D02*
X481712Y533549D01*
Y532491*
X483545Y533020*
X481712Y532598D02*
X482085D01*
X481712Y533465D02*
X482004D01*
X482362Y532679D02*
Y533361D01*
X483228Y532928D02*
Y533111D01*
X700882Y503509D02*
X702715Y502980D01*
Y504038*
X700882Y503509*
X702128Y503150D02*
X702715D01*
X702638Y504016D02*
X702715D01*
X701496Y503332D02*
Y503686D01*
X702362Y503082D02*
Y503936D01*
X822893Y496124D02*
X822364Y494291D01*
X823422*
X822893Y496124*
X822421Y494488D02*
X823365D01*
X822671Y495354D02*
X823116D01*
X822756Y494291D02*
Y495648D01*
X810548Y561621D02*
X811077Y563454D01*
X810019*
X810548Y561621*
X810425Y562047D02*
X810671D01*
X810175Y562913D02*
X810921D01*
X810630Y561904D02*
Y563454D01*
X440945Y559042D02*
X439112Y559571D01*
Y558513*
X440945Y559042*
X439112Y558583D02*
X439353D01*
X439112Y559449D02*
X439534D01*
X439921Y558747D02*
Y559337D01*
X440787Y558996D02*
Y559087D01*
X518269Y582331D02*
X518798Y584164D01*
X517741*
X518269Y582331*
X518124Y582835D02*
X518415D01*
X517874Y583701D02*
X518665D01*
X517874D02*
Y584164D01*
X518740Y583962D02*
Y584164D01*
X460964Y552676D02*
X459131Y553205D01*
Y552148*
X459131D02*
X460964Y552676D01*
X459131Y552520D02*
X460420D01*
X459843Y552353D02*
Y553000D01*
X460709Y552603D02*
Y552750D01*
X523526Y582575D02*
X524055Y584408D01*
X522997*
X523526Y582575*
X523451Y582835D02*
X523601D01*
X523201Y583701D02*
X523851D01*
X523071Y584153D02*
Y584408D01*
X523937Y583999D02*
Y584408D01*
X432283Y558777D02*
X434117Y558248D01*
Y559306*
X432283Y558777*
X432956Y558583D02*
X434117D01*
X432992Y558572D02*
Y558981D01*
X433858Y558322D02*
Y559231D01*
X427732Y559171D02*
X425899Y559700D01*
Y558642*
X427732Y559171*
X425899Y559449D02*
X426769D01*
X426063Y558689D02*
Y559652D01*
X426929Y558939D02*
Y559403D01*
X439550Y548286D02*
X441384Y547757D01*
Y548815*
X439550Y548286*
X439887Y548189D02*
X441384D01*
X439921Y548179D02*
Y548393D01*
X440787Y547929D02*
Y548643D01*
X427732Y549171D02*
X425899Y549700D01*
Y548642*
X427732Y549171*
X425899Y549055D02*
X427331D01*
X426063Y548689D02*
Y549652D01*
X426929Y548939D02*
Y549403D01*
X736394Y529658D02*
X735865Y527825D01*
X736923*
X736394Y529658*
X735993Y528268D02*
X736795D01*
X736243Y529134D02*
X736545D01*
X736142Y527825D02*
Y528784D01*
X773655Y597181D02*
X775326Y598103D01*
X774578Y598851*
X773655Y597181*
X773864Y597559D02*
X774341D01*
X774343Y598425D02*
X775004D01*
X774252Y597510D02*
Y598261D01*
X775118Y597988D02*
Y598311D01*
X739418Y540155D02*
X738889Y538322D01*
X739947*
X739418Y540155*
X738987Y538661D02*
X739849D01*
X739237Y539528D02*
X739599D01*
X739606Y538322D02*
Y539502D01*
X810548Y566345D02*
X810019Y564512D01*
X811077*
X810548Y566345*
X810058Y564646D02*
X811038D01*
X810308Y565512D02*
X810789D01*
X810630Y564512D02*
Y566061D01*
X826591Y593900D02*
X828261Y594823D01*
X827513Y595571*
X826591Y593900*
X826698Y594094D02*
X826942D01*
X827176Y594961D02*
X828123D01*
X827087Y594174D02*
Y594799D01*
X827953Y594653D02*
Y595131D01*
X813661Y560909D02*
X813132Y559076D01*
X814190*
X813661Y560909*
X813240Y559449D02*
X814083D01*
X813490Y560315D02*
X813833D01*
X813228Y559076D02*
Y559409D01*
X814094Y559076D02*
Y559408D01*
X817490Y572897D02*
X819161Y573820D01*
X818413Y574568*
X817490Y572897*
X817717Y573307D02*
X818233D01*
X818195Y574173D02*
X818807D01*
X817559Y572935D02*
Y573022D01*
X818425Y573413D02*
Y574555D01*
X806040Y556255D02*
X805511Y554422D01*
X806569*
X806040Y556255*
X805712Y555118D02*
X806368D01*
X805962Y555984D02*
X806118D01*
X806299Y554422D02*
Y555357D01*
X816440Y593728D02*
X818110Y594650D01*
X817362Y595398*
X816440Y593728*
X816643Y594094D02*
X817104D01*
X817121Y594961D02*
X817799D01*
X816693Y593867D02*
Y594186D01*
X817559Y594346D02*
Y595201D01*
X701969Y593701D02*
X699372Y594647D01*
Y592754*
X701969Y593701*
X699372Y593228D02*
X700672D01*
X699372Y594094D02*
X700888D01*
X699764Y592897D02*
Y594504D01*
X700630Y593213D02*
Y594189D01*
X701496Y593529D02*
Y593873D01*
X705614Y593701D02*
X707447Y593172D01*
Y594230*
X705614Y593701*
X707251Y593228D02*
X707447D01*
X706978Y594094D02*
X707447D01*
X705827Y593639D02*
Y593762D01*
X706693Y593389D02*
Y594012D01*
X701969Y585827D02*
X699372Y586773D01*
Y584880*
X701969Y585827*
X699372Y585433D02*
X700888D01*
X699372Y586299D02*
X700672D01*
X699764Y585023D02*
Y586630D01*
X700630Y585339D02*
Y586315D01*
X701496Y585655D02*
Y585999D01*
X705627Y585827D02*
X707460Y585298D01*
Y586356*
X705627Y585827*
X706991Y585433D02*
X707460D01*
X707264Y586299D02*
X707460D01*
X705827Y585769D02*
Y585884D01*
X706693Y585519D02*
Y586134D01*
X744235Y587668D02*
X746068Y587139D01*
Y588197*
X744235Y587668*
X745978Y587165D02*
X746068D01*
X745494Y588031D02*
X746068D01*
X744803Y587504D02*
Y587832D01*
X745669Y587254D02*
Y588082D01*
X733205Y592030D02*
X732283Y593701D01*
X731535Y592953*
X733205Y592030*
X732605Y592362D02*
X733022D01*
X731811Y593228D02*
X732544D01*
X731811Y592800D02*
Y593229D01*
X732677Y592322D02*
Y592987D01*
X746828Y590694D02*
X748661Y590165D01*
Y591223*
X746828Y590694*
X747049Y590630D02*
X748661D01*
X747402Y590528D02*
Y590859D01*
X748268Y590278D02*
Y591109D01*
X735748Y615354D02*
X737808Y619987D01*
X733688*
X735748Y615354*
X735573Y615748D02*
X735923D01*
X735188Y616614D02*
X736308D01*
X734803Y617480D02*
X736693D01*
X734418Y618346D02*
X737079D01*
X734032Y619213D02*
X737464D01*
X734409Y618365D02*
Y619987D01*
X735276Y616417D02*
Y619987D01*
X736142Y616240D02*
Y619987D01*
X737008Y618188D02*
Y619987D01*
X749047Y604204D02*
X750880Y603675D01*
Y604733*
X749047Y604204*
X750031Y604488D02*
X750880D01*
X749134Y604179D02*
Y604229D01*
X750000Y603929D02*
Y604479D01*
X750866Y603679D02*
Y604729D01*
X743354Y606175D02*
X741521Y606704D01*
Y605646*
X743354Y606175*
X741521Y606220D02*
X743196D01*
X742205Y605843D02*
Y606507D01*
X743071Y606093D02*
Y606257D01*
X778712Y583045D02*
X779241Y584878D01*
X778183*
X778712Y583045*
X778523Y583701D02*
X778901D01*
X778273Y584567D02*
X779151D01*
X778583Y583493D02*
Y584878D01*
X759875Y593478D02*
X760798Y591807D01*
X761546Y592555*
X759875Y593478*
X760491Y592362D02*
X761353D01*
X760013Y593228D02*
X760327D01*
X760394Y592539D02*
Y593191D01*
X761260Y592269D02*
Y592713D01*
X753079Y602534D02*
X752157Y604204D01*
X751409Y603456*
X753079Y602534*
X752677Y602756D02*
X752957D01*
X751575Y603622D02*
X752479D01*
X751732Y603278D02*
Y603779D01*
X752598Y602799D02*
Y603405D01*
X631489Y507323D02*
X627938D01*
X631489Y507297D02*
X632840D01*
X627312Y503463D02*
Y503515D01*
X698599*
X631172Y511024D02*
X643008D01*
X656868Y507297D02*
X679428D01*
X656858D02*
X632840D01*
X632814Y507323*
X631489*
X656868Y507287D02*
X656858Y507297D01*
X656868*
X692635Y514117D02*
X694828Y516311D01*
X694959*
X692635Y514117D02*
X634415D01*
X615512Y533020*
X481183*
X703244Y503509D02*
X698605D01*
X698599Y503515*
X822893Y493762D02*
Y540154D01*
X810548Y552499*
Y563983*
X438583Y559042D02*
X507401D01*
X518269Y569911*
Y584693*
X458602Y552676D02*
X504468D01*
X523526Y571734*
Y584937*
X434646Y558777D02*
X430205D01*
X429811Y559171*
X425370*
X441913Y548286D02*
X434084D01*
X433199Y549171*
X425370*
X736394Y527296D02*
Y559919D01*
X775326Y598851*
X739418Y537793D02*
Y558855D01*
X779763Y599201*
X781781*
X810548Y563983D02*
Y577858D01*
X828261Y595571*
X813661Y558547D02*
Y569068D01*
X819161Y574568*
X806040Y553893D02*
Y583328D01*
X818110Y595398*
X698425Y593701D02*
X707976D01*
X698425Y585827D02*
X707989D01*
X751708Y587214D02*
X748730Y584235D01*
X729258*
X727666Y585827*
X751735Y587187D02*
X751708Y587214D01*
X746597Y587668D02*
X737568D01*
X731535Y593701*
X749190Y590694D02*
X740837D01*
X735748Y595783*
Y622047*
X751409Y604204D02*
X747186D01*
X745215Y606175*
X740992*
X782787Y585015D02*
Y585091D01*
X782759Y585119*
X782787Y585015D02*
X782759Y585119D01*
X782730Y571763D02*
X782787D01*
Y585015*
X778626Y574720D02*
X778712D01*
Y585407*
X784493Y567394D02*
Y569624D01*
X785536Y570667*
Y586472*
X785370Y586638*
Y589171*
X761546Y591807D02*
X756477Y596876D01*
Y599136*
X751409Y604204*
G54D177*
X635433Y539370D03*
X698425Y585827D03*
Y593701D03*
G74*
X0Y0D02*
M02*
