M48
;FILE_FORMAT=2:4
INCH,LZ
FMAT,2
ICI,OFF
;TYPE=PLATED
T1C.01181
T2C.03543
%
M72
G90
G93X0Y0
T1C.01181F095S3
X043537Y040917
X042537Y041917
X041537Y041917
X043537Y041917
X041537Y042917
X042537Y042917
X043537Y042917
X043537Y043917
X041537Y043917
X042537Y043917
X042537Y044917
X041537Y044917
X043537Y044917
X041537Y045917
X043537Y045917
X042537Y045917
X042537Y046917
X043537Y046917
X041537Y046917
X042537Y047917
X041537Y047917
X043537Y047917
X042537Y048917
X041537Y048917
X043537Y048917
X043537Y049917
X042537Y049917
X041537Y050917
X042537Y050917
X043537Y050917
X043537Y051917
X042537Y051917
X041537Y051917
X042537Y052917
X041537Y052917
X043537Y052917
X041537Y053917
X042537Y053917
X041537Y054917
X042537Y054917
X043465Y055878
X043858Y055904
X042537Y055917
X041537Y055917
X042537Y056917
X041537Y056917
X043537Y056917
X041537Y057917
X043537Y057917
X042537Y057917
X042537Y058917
X041537Y058917
X041537Y059917
X042537Y059917
X042537Y060917
X043537Y061917
X045537Y061917
X044537Y061917
X045537Y060917
X044537Y060917
X045235Y060248
X044537Y059917
X044537Y058917
X045537Y057917
X044537Y057917
X045537Y056917
X044537Y056917
X04586Y055268
X044191Y054829
X045537Y052917
X044537Y052917
X044537Y051917
X045537Y051917
X045537Y050917
X044537Y050917
X044537Y049917
X045537Y049917
X044537Y048917
X045537Y048917
X045537Y047917
X044537Y047917
X044537Y046917
X045537Y046917
X044537Y045917
X045537Y045917
X045537Y044917
X044537Y044917
X044537Y043917
X044537Y042917
X044537Y041917
X045537Y041917
X045537Y040917
X044537Y040917
X046537Y040917
X047537Y040917
X047537Y041917
X046537Y041917
X047791Y042731
X046537Y044917
X047537Y044917
X047537Y045917
X046537Y045917
X046829Y046417
X046537Y046917
X047537Y046917
X048537Y047917
X047537Y047917
X046537Y047917
X046537Y048917
X048537Y048917
X047537Y048917
X048537Y049917
X046537Y049917
X048537Y050917
X046537Y050917
X047537Y050917
X048537Y051917
X047537Y051917
X046537Y051917
X048186Y052431
X048569Y052726
X046537Y052917
X047537Y052917
X048118Y053302
X047537Y053917
X046537Y053917
X047537Y054917
X046537Y054917
X048127Y056557
X046537Y056917
X048893Y057116
X046639Y057691
X047537Y057917
X048537Y058917
X048367Y059888
X048913Y060006
X048353Y060757
X046537Y060917
X047881Y061022
X048809Y061126
X047483Y061774
X046537Y061917
X048397Y061965
X047645Y062201
X050799Y062304
X049355Y062127
X050445Y062054
X051521Y062039
X050135Y061744
X050607Y061656
X049502Y061288
X050327Y060698
X051432Y060683
X049089Y060389
X05101Y060233
X049593Y060055
X050622Y059903
X051289Y059406
X050077Y059402
X049321Y057573
X050537Y054917
X050537Y051917
X050537Y050917
X050537Y049917
X050537Y048917
X050537Y047917
X050537Y046917
X050537Y043917
X049537Y043917
X049537Y042917
X050537Y042917
X049915Y0423
X050537Y041917
X050537Y040917
X053537Y040917
X052537Y040917
X051537Y040917
X053537Y041917
X052537Y041917
X051537Y041917
X053537Y042917
X052537Y042917
X051537Y042917
X053537Y043917
X052537Y043917
X051537Y043917
X053537Y046917
X052537Y046917
X052537Y047917
X052537Y048917
X052537Y049917
X052537Y050917
X052537Y051917
X052537Y053917
X051827Y058469
X052353Y058494
X053537Y058917
X052626Y05949
X051742Y059844
X053804Y060006
X052773Y060168
X053937Y060433
X052145Y060458
X052906Y060713
X052331Y061317
X051579Y06145
X053156Y061612
X052699Y061892
X053451Y062039
X052405Y062407
X055979Y062329
X054423Y062304
X055611Y061808
X054099Y061685
X055056Y061114
X055658Y061022
X054158Y06086
X05575Y060282
X056225Y060269
X054992Y060119
X055573Y059755
X05513Y059284
X054537Y058917
X055537Y058917
X054537Y046917
X055537Y046917
X055537Y043917
X054537Y043917
X054537Y042917
X055537Y042917
X055537Y041917
X054537Y041917
X054537Y040917
X055537Y040917
X056537Y040917
X058537Y041917
X056537Y041917
X058537Y042917
X056537Y042917
X056537Y043917
X058537Y043917
X057537Y046917
X056537Y046917
X058537Y046917
X057165Y058631
X058537Y058917
X057947Y05919
X058799Y059637
X056834Y060252
X058098Y060295
X057277Y060675
X058757Y06079
X056613Y060929
X057954Y061106
X058989Y061346
X05693Y061508
X057994Y061808
X056768Y062063
X058307Y062329
X05928Y062108
X059427Y060399
X060965Y059814
X059521Y05974
X060248Y059456
X060537Y058917
X059537Y058917
X059537Y046917
X059537Y043917
X060537Y043917
X060537Y042917
X059537Y042917
X059537Y041917
X060537Y041917
X059537Y040917
X060537Y040917
X063537Y040917
X061537Y040917
X062537Y040917
X061537Y041917
X063537Y041917
X062537Y041917
X063537Y042917
X062537Y042917
X061537Y042917
X062537Y043917
X061537Y043917
X062537Y044917
X062537Y045917
X061957Y046378
X062853Y049827
X062731Y050346
X06196Y050547
X062794Y050732
X063117Y051102
X062062Y051503
X063543Y0533
X062537Y053917
X062537Y054917
X062537Y055917
X062537Y056917
X061537Y057917
X062537Y057917
X061537Y058917
X062537Y058917
X061908Y059564
X065537Y058917
X064537Y058917
X065537Y056917
X064537Y056917
X065537Y055917
X064537Y055917
X065537Y054917
X064537Y054917
X064123Y051811
X064301Y051102
X065587Y047511
X065537Y046917
X064798Y046387
X065537Y045917
X065537Y044917
X064828Y044767
X065537Y043917
X064537Y043917
X065537Y042917
X064537Y042917
X065537Y041917
X064537Y041917
X064537Y040917
X065537Y040917
X068537Y040917
X066537Y040917
X067537Y040917
X068537Y041917
X067537Y041917
X066537Y041917
X067537Y042917
X068537Y042917
X066537Y042917
X067537Y043917
X068537Y043917
X066537Y043917
X066537Y044917
X067537Y044917
X068537Y044917
X066537Y045917
X068537Y045917
X067537Y045917
X066537Y046917
X067537Y046917
X068537Y046917
X068537Y047917
X068029Y048668
X067943Y05073
X068537Y051917
X066537Y054917
X068537Y054917
X067537Y054917
X068537Y055917
X067537Y055917
X066537Y055917
X066537Y056917
X067537Y056917
X068537Y056917
X066537Y057917
X068537Y057917
X067537Y057917
X068537Y058917
X067537Y058917
X070798Y05937
X070799Y058583
X07107Y057397
X070537Y052917
X069537Y052917
X069496Y051631
X070324Y050351
X070671Y050031
X069282Y04831
X069144Y047515
X069537Y046917
X069537Y045917
X069537Y044917
X069537Y043917
X069537Y042917
X070537Y042917
X069537Y041917
X070537Y041917
X070537Y040917
X069537Y040917
X073537Y040917
X071537Y040917
X072537Y040917
X073537Y041917
X072537Y041917
X071537Y041917
X072537Y042917
X071537Y042917
X071537Y043917
X072537Y043917
X071537Y044917
X073537Y044917
X072537Y044917
X071537Y045917
X072537Y045917
X072537Y046917
X071537Y046917
X072537Y050917
X073537Y050917
X071866Y051356
X072537Y051917
X073537Y051917
X073639Y05273
X073942Y053779
X071537Y053917
X071537Y054917
X072537Y054917
X072731Y056656
X073416Y056872
X07396Y057163
X073998Y057773
X071689Y057801
X072767Y058583
X071537Y058917
X073154Y05937
X075986Y061246
X074146Y061115
X07515Y061096
X076136Y060664
X074099Y060617
X075141Y06042
X076155Y059181
X074919Y059069
X07466Y058767
X075174Y058719
X07458Y057932
X075512Y057067
X076126Y054879
X0742Y053465
X074537Y051917
X075537Y051917
X075685Y046899
X075368Y046893
X075057Y046887
X075691Y046499
X07532Y046463
X074997Y046439
X075015Y04605
X07535Y046032
X075703Y046026
X074948Y044729
X075821Y044544
X075537Y043917
X076024Y04351
X075537Y042917
X075537Y041917
X074537Y041917
X075537Y040917
X074537Y040917
X076537Y040917
X077537Y040917
X077537Y041917
X076537Y041917
X077537Y042917
X076537Y042917
X078537Y042917
X077386Y043632
X076537Y043917
X076652Y044472
X078537Y047917
X078537Y048917
X078537Y049917
X078537Y050917
X077537Y050917
X078537Y051917
X076537Y051917
X078537Y052917
X076574Y054371
X077668Y054616
X076939Y05482
X078449Y056739
X078273Y057176
X077863Y057472
X078276Y058512
X077871Y058541
X078537Y058917
X077533Y059885
X078178Y05992
X078326Y06068
X077149Y060711
X078379Y061188
X077177Y061246
X079228Y061098
X081038Y061069
X080564Y060794
X081097Y060011
X079692Y058998
X081055Y056398
X081366Y055855
X080604Y055389
X079233Y055344
X079537Y051917
X080537Y051917
X079537Y050917
X080537Y050917
X079537Y049917
X080537Y049917
X079537Y048917
X080537Y048917
X080537Y047917
X079537Y047917
X080537Y046917
X079537Y046917
X080537Y043917
X079546Y04355
X079537Y042917
X080537Y042917
X080537Y041917
X079537Y041917
X080537Y040917
X079537Y040917
X083537Y040917
X082537Y040917
X081537Y040917
X081537Y041917
X083537Y042917
X082537Y042917
X081537Y042917
X083537Y043917
X082537Y043917
X081537Y043917
X083605Y044849
X081537Y044917
X083537Y046917
X082537Y046917
X081537Y046917
X081537Y047917
X081537Y048917
X082289Y049376
X083537Y049917
X081537Y049917
X083537Y050917
X081537Y050917
X082965Y051289
X081537Y051917
X083537Y051917
X081537Y052917
X083537Y052917
X082965Y052997
X083537Y053917
X082984Y05447
X083537Y054917
X082269Y055137
X082815Y055211
X083124Y055741
X082263Y055885
X083537Y055917
X081916Y057457
X081811Y05954
X082826Y059557
X083913Y061061
X084838Y060066
X084154Y059874
X085079Y059262
X085067Y057403
X084537Y056917
X084144Y056457
X084537Y055917
X084537Y054917
X084537Y053917
X084537Y052917
X084537Y051917
X084537Y050917
X084537Y049917
X084537Y044917
X084537Y043917
X084537Y042917
X084537Y041917
T2C.03543F197S55
X073575Y062205
X075575Y062205
X074575Y062205
X077835Y062205
X078835Y062205
X076575Y062205
X084646Y045669
X084646Y046669
X084646Y047669
X084646Y048669
X082835Y062205
X080835Y062205
X081835Y062205
X079835Y062205
M30
