*
*
G04 PADS VX.2.4 Build Number: 11282995 generated Gerber (RS-274-X) file*
G04 PC Version=2.1*
*
%IN "AD-31_V100.pcb"*%
*
%MOIN*%
*
%FSLAX35Y35*%
*
*
*
*
G04 PC Standard Apertures*
*
*
G04 Thermal Relief Aperture macro.*
%AMTER*
1,1,$1,0,0*
1,0,$1-$2,0,0*
21,0,$3,$4,0,0,45*
21,0,$3,$4,0,0,135*
%
*
*
G04 Annular Aperture macro.*
%AMANN*
1,1,$1,0,0*
1,0,$2,0,0*
%
*
*
G04 Odd Aperture macro.*
%AMODD*
1,1,$1,0,0*
1,0,$1-0.005,0,0*
%
*
*
G04 PC Custom Aperture Macros*
*
*
*
*
*
*
G04 PC Aperture Table*
*
%ADD013R,0.01969X0.01969*%
%ADD032C,0.00394*%
%ADD036C,0.03937*%
%ADD047C,0.00787*%
%ADD052C,0.001*%
%ADD078R,0.032X0.03*%
%ADD079R,0.03X0.032*%
%ADD083R,0.06X0.145*%
%ADD095R,0.03937X0.02362*%
%ADD100O,0.06693X0.01181*%
%ADD102R,0.07087X0.1752*%
%ADD104R,0.06102X0.02362*%
%ADD154R,0.05157X0.10276*%
%ADD155R,0.11811X0.05906*%
%ADD156R,0.05906X0.11811*%
%ADD157R,0.09843X0.1378*%
%ADD158O,0.0315X0.09843*%
%ADD159O,0.09843X0.0315*%
%ADD160R,0.11811X0.07874*%
%ADD162R,0.04331X0.04331*%
%ADD163R,0.06693X0.01181*%
%ADD164O,0.01181X0.06693*%
%ADD166R,0.04331X0.05118*%
%ADD167R,0.03937X0.04134*%
%ADD168R,0.03937X0.08661*%
%ADD169R,0.05118X0.05709*%
%ADD170R,0.03937X0.05512*%
%ADD171R,0.05906X0.06693*%
%ADD197R,0.10236X0.02362*%
*
*
*
*
G04 PC Circuitry*
G04 Layer Name AD-31_V100.pcb - circuitry*
%LPD*%
*
*
G04 PC Custom Flashes*
G04 Layer Name AD-31_V100.pcb - flashes*
%LPD*%
*
*
G04 PC Circuitry*
G04 Layer Name AD-31_V100.pcb - circuitry*
%LPD*%
*
G54D13*
G01X626772Y493713D03*
Y490564D03*
X654331Y485827D03*
Y482677D03*
X630709Y493701D03*
Y490551D03*
X622835Y493701D03*
Y490551D03*
X438583Y555906D03*
Y552756D03*
X481102Y542520D03*
X484252D03*
X481102Y538583D03*
X484252D03*
X576772Y424409D03*
X573622D03*
X576772Y432283D03*
Y429134D03*
Y437008D03*
X573622D03*
X487402Y437795D03*
X484252D03*
X487402Y429921D03*
Y433071D03*
Y425197D03*
X484252D03*
X828346Y599213D03*
Y602362D03*
X838452Y584756D03*
Y587906D03*
X788189Y571654D03*
Y574803D03*
X840157Y579528D03*
X843307D03*
X799213Y553543D03*
X796063D03*
X727559Y475591D03*
Y478740D03*
X731496Y475591D03*
Y478740D03*
Y471260D03*
Y468110D03*
X788386Y599213D03*
Y602362D03*
X798346Y603150D03*
X801496D03*
X731496Y559843D03*
X734646D03*
X778346Y599213D03*
Y602362D03*
X818110Y599213D03*
Y602362D03*
X714173Y593701D03*
X717323D03*
X765750Y602357D03*
Y599207D03*
X745634Y602357D03*
Y599207D03*
X755512Y602357D03*
Y599207D03*
X735630D03*
Y602357D03*
X455118Y552756D03*
Y555906D03*
X451181Y552756D03*
Y555906D03*
X434646Y552756D03*
Y555906D03*
X430709Y552756D03*
Y555906D03*
X447244Y552756D03*
Y555906D03*
X442520Y552756D03*
Y555906D03*
X777165Y518898D03*
X780315D03*
X755118Y575591D03*
Y578740D03*
X737008Y534646D03*
Y531496D03*
X822835Y479921D03*
Y476772D03*
Y489764D03*
Y486614D03*
X680315Y481890D03*
Y478740D03*
X699213Y507874D03*
Y511024D03*
X731496Y553543D03*
X734646D03*
X662205Y518110D03*
Y514961D03*
X792126Y531496D03*
Y528346D03*
X805512Y522835D03*
X802362D03*
X797638Y542520D03*
X800787D03*
X714173Y585827D03*
X717323D03*
X677953Y518110D03*
Y514961D03*
X666142D03*
Y518110D03*
X670079D03*
Y514961D03*
X674016D03*
Y518110D03*
X676378Y478740D03*
Y481890D03*
X723622Y495276D03*
Y498425D03*
X778740Y462992D03*
Y466142D03*
X797638Y546457D03*
X800787D03*
G54D32*
X596260Y543504D02*
Y547950D01*
X593226Y550984*
X584843*
Y543504*
X596260*
X584843D02*
Y550984D01*
X585039Y543504D02*
Y550984D01*
X585236Y543504D02*
Y550984D01*
X585433Y543504D02*
Y550984D01*
X585630Y543504D02*
Y550984D01*
X585827Y543504D02*
Y550984D01*
X586024Y543504D02*
Y550984D01*
X586220Y543504D02*
Y550984D01*
X586417Y543504D02*
Y550984D01*
X586614Y543504D02*
Y550984D01*
X586811Y543504D02*
Y550984D01*
X587008Y543504D02*
Y550984D01*
X587205Y543504D02*
Y550984D01*
X587402Y543504D02*
Y550984D01*
X587598Y543504D02*
Y550984D01*
X587795Y543504D02*
Y550984D01*
X587992Y543504D02*
Y550984D01*
X588189Y543504D02*
Y550984D01*
X588386Y543504D02*
Y550984D01*
X588583Y543504D02*
Y550984D01*
X588780Y543504D02*
Y550984D01*
X588976Y543504D02*
Y550984D01*
X589173Y543504D02*
Y550984D01*
X589370Y543504D02*
Y550984D01*
X589567Y543504D02*
Y550984D01*
X589764Y543504D02*
Y550984D01*
X589961Y543504D02*
Y550984D01*
X590157Y543504D02*
Y550984D01*
X590354Y543504D02*
Y550984D01*
X590551Y543504D02*
Y550984D01*
X590748Y543504D02*
Y550984D01*
X590945Y543504D02*
Y550984D01*
X591142Y543504D02*
Y550984D01*
X591339Y543504D02*
Y550984D01*
X591535Y543504D02*
Y550984D01*
X591732Y543504D02*
Y550984D01*
X591929Y543504D02*
Y550984D01*
X592126Y543504D02*
Y550984D01*
X592323Y543504D02*
Y550984D01*
X592520Y543504D02*
Y550984D01*
X592717Y543504D02*
Y550984D01*
X592913Y543504D02*
Y550984D01*
X593110Y543504D02*
Y550984D01*
X593307Y543504D02*
Y550903D01*
X593504Y543504D02*
Y550706D01*
X593701Y543504D02*
Y550509D01*
X593898Y543504D02*
Y550312D01*
X594094Y543504D02*
Y550115D01*
X594291Y543504D02*
Y549918D01*
X594488Y543504D02*
Y549722D01*
X594685Y543504D02*
Y549525D01*
X594882Y543504D02*
Y549328D01*
X595079Y543504D02*
Y549131D01*
X595276Y543504D02*
Y548934D01*
X595472Y543504D02*
Y548737D01*
X595669Y543504D02*
Y548541D01*
X595866Y543504D02*
Y548344D01*
X596063Y543504D02*
Y548147D01*
G54D36*
X435633Y609352D03*
X831199Y420591D03*
G54D47*
X411827Y417037D02*
Y610444D01*
X411835Y610447D02*
G75*
G03X427605Y627932I-13807J28309D01*
G01X427599Y627913D02*
X840984D01*
X840977Y627932D02*
G03X856748Y610447I29578J10824D01*
G01X856756Y610444D02*
Y417037D01*
X856748Y417033D02*
G03X840977Y399548I13807J-28309D01*
G01X840984Y399567D02*
X427598D01*
X427605Y399548D02*
G03X411834Y417033I-29577J-10824D01*
G01X472874Y592480D02*
G03X472874I-7874J0D01*
G01Y435000D02*
G03X472874I-7874J0D01*
G01X748465D02*
G03X748465I-7874J0D01*
G01X436657Y592480D02*
G03X436657I-1185J0D01*
G54D52*
G01X473377Y584103D02*
X471964Y582895D01*
G54D78*
X635633Y522835D03*
X641533D03*
X565554Y592126D03*
X571454D03*
X725984Y553543D03*
X720084D03*
X725984Y559843D03*
X720084D03*
G54D79*
X635433Y516336D03*
Y510436D03*
X843132Y584763D03*
Y590663D03*
X732283Y534840D03*
Y528940D03*
X718898Y494688D03*
Y500588D03*
G54D83*
X802561Y457480D03*
X821061D03*
G54D95*
X647047Y486024D03*
Y493504D03*
X637992Y489764D03*
X683661Y514764D03*
Y507283D03*
X692717Y511024D03*
X648228Y514764D03*
Y507283D03*
X657283Y511024D03*
X669094Y478937D03*
Y486417D03*
X660039Y482677D03*
G54D100*
X784067Y536817D03*
Y538786D03*
Y540754D03*
Y542723D03*
Y544691D03*
Y546660D03*
Y548628D03*
Y550597D03*
Y552565D03*
Y554534D03*
Y556502D03*
X747453D03*
Y554534D03*
Y552565D03*
Y550597D03*
Y548628D03*
Y546660D03*
Y544691D03*
Y542723D03*
Y540754D03*
Y538786D03*
Y536817D03*
Y534849D03*
G54D102*
X638583Y470866D03*
Y445669D03*
X707330Y473719D03*
Y448522D03*
X782677Y441732D03*
Y416535D03*
G54D104*
X764173Y456280D03*
Y461280D03*
Y466280D03*
Y471280D03*
X742913D03*
Y466280D03*
Y461280D03*
Y456280D03*
G54D154*
X753543Y463780D03*
G54D155*
X635433Y594094D03*
Y586220D03*
Y578346D03*
Y570472D03*
Y562598D03*
Y554724D03*
Y546850D03*
Y538976D03*
X698383Y538896D03*
Y546770D03*
Y554644D03*
Y562518D03*
Y570392D03*
Y578266D03*
Y586140D03*
Y594014D03*
G54D156*
X647188Y532980D03*
X655062D03*
X662936D03*
X670810D03*
X678684D03*
X686558D03*
G54D157*
X766774Y494383D03*
X736853D03*
G54D158*
X602362Y576969D03*
X597244D03*
X592126D03*
X587008D03*
X581890D03*
X576772D03*
X571654D03*
X554331D03*
X549213D03*
X544094D03*
X538976D03*
X533858D03*
X528740D03*
X523622D03*
X518504D03*
X513386D03*
X508268D03*
X503150D03*
Y452953D03*
X508268D03*
X513386D03*
X518504D03*
X523622D03*
X528740D03*
X533858D03*
X538976D03*
X544094D03*
X549213D03*
X554331D03*
X571654D03*
X576772D03*
X581890D03*
X587008D03*
X592126D03*
X597244D03*
X602362D03*
X564567Y576969D03*
X559449D03*
Y452953D03*
X564567D03*
G54D159*
X496654Y552559D03*
Y547441D03*
Y542323D03*
Y537205D03*
Y532087D03*
Y526969D03*
Y521850D03*
Y516732D03*
Y511614D03*
Y506496D03*
Y501378D03*
Y496260D03*
Y491142D03*
Y486024D03*
Y480906D03*
Y475787D03*
Y470669D03*
Y465551D03*
X608858D03*
Y470669D03*
Y475787D03*
Y480906D03*
Y486024D03*
Y491142D03*
Y496260D03*
Y501378D03*
Y506496D03*
Y511614D03*
Y516732D03*
Y521850D03*
Y526969D03*
Y532087D03*
Y537205D03*
Y542323D03*
Y547441D03*
Y552559D03*
Y557677D03*
Y562795D03*
X496654Y557677D03*
Y562795D03*
G54D160*
X590551Y534646D03*
Y482677D03*
X571654D03*
X552756D03*
X533858D03*
X514961D03*
X590551Y495276D03*
X571654D03*
X552756D03*
X533858D03*
X514961D03*
X590551Y508661D03*
X571654D03*
X533858D03*
X514961D03*
X590551Y521260D03*
X571654D03*
X533858D03*
X514961D03*
X571654Y534646D03*
X552756D03*
X533858D03*
X514961D03*
X571654Y547244D03*
X552756D03*
X533858D03*
X514961D03*
G54D162*
X596063Y558268D03*
X588189D03*
X580315D03*
X572441D03*
X564567D03*
X556693D03*
X548819D03*
X540945D03*
X533071D03*
X525197D03*
X517323D03*
X509449D03*
X596063Y566142D03*
X588189D03*
X580315D03*
X572441D03*
X564567D03*
X556693D03*
X548819D03*
X540945D03*
X533071D03*
X525197D03*
X517323D03*
X509449D03*
G54D163*
X784067Y534849D03*
G54D164*
X776587Y563983D03*
X774618D03*
X772650D03*
X770681D03*
X768713D03*
X766744D03*
X764776D03*
X762807D03*
X760839D03*
X758870D03*
X756902D03*
X754933D03*
Y527369D03*
X756902D03*
X758870D03*
X760839D03*
X762807D03*
X764776D03*
X766744D03*
X768713D03*
X770681D03*
X772650D03*
X774618D03*
X776587D03*
G54D166*
X805315Y528543D03*
Y537598D03*
X797835D03*
Y528543D03*
G54D167*
X576772Y418898D03*
X487402D03*
G54D168*
X570866Y412598D03*
X582677D03*
X481496D03*
X493307D03*
G54D169*
X787402Y460671D03*
Y470037D03*
G54D170*
X454843Y541732D03*
X459843D03*
X444843D03*
X449843D03*
X434843D03*
X439843D03*
G54D171*
X475843Y499732D03*
X416843D03*
G54D197*
X798819Y584665D03*
Y579665D03*
Y574665D03*
Y569665D03*
X829528D03*
Y574665D03*
Y579665D03*
Y584665D03*
G74*
X0Y0D02*
M02*
